<svg xmlns="http://www.w3.org/2000/svg" xmlns:xlink="http://www.w3.org/1999/xlink" width="119.333" height="132.235" viewBox="0 0 119.333 132.235">
  <defs>
    <clipPath id="clip-path">
      <rect id="Rectangle_5" data-name="Rectangle 5" width="118.978" height="56.612" fill="none"/>
    </clipPath>
    <clipPath id="clip-path-2">
      <rect id="Rectangle_6" data-name="Rectangle 6" width="118.978" height="56.612" transform="translate(0 0)" fill="none"/>
    </clipPath>
  </defs>
  <g id="Group_2" data-name="Group 2" transform="translate(4186.38 122.89)">
    <g id="Layer_x0020_1" transform="translate(-4186.38 -122.89)">
      <g id="Group_4" data-name="Group 4" transform="translate(0 0)" clip-path="url(#clip-path)">
        <path id="Path_95" data-name="Path 95" d="M17447.1-3112.27h0Z" transform="translate(-17447.1 3112.271)" fill="#ef8a18"/>
        <path id="Path_96" data-name="Path 96" d="M17562.619-976.58l3.459,3.508H17447.1l3.467-3.508Z" transform="translate(-17447.1 1029.683)" fill="#f39f13"/>
        <path id="Path_97" data-name="Path 97" d="M17450.566-3059.167l-3.467,3.508v-56.611l3.467,3.51Z" transform="translate(-17447.1 3112.271)" fill="#eb6e1f"/>
        <path id="Path_98" data-name="Path 98" d="M17450.566-3108.761l-3.467-3.51h118.979l-3.459,3.51Z" transform="translate(-17447.1 3112.271)" fill="#ea6720"/>
        <path id="Path_99" data-name="Path 99" d="M22154.9-3108.761l3.465-3.51v56.611l-3.465-3.509Z" transform="translate(-22039.385 3112.271)" fill="#f39c15"/>
        <path id="Path_100" data-name="Path 100" d="M17700.254-2921.576H17588.2v-49.594h112.055Z" transform="translate(-17584.74 2974.679)" fill="#ec731d"/>
      </g>
      <g id="Group_5" data-name="Group 5" transform="translate(0.355 59.171)" clip-path="url(#clip-path-2)">
        <path id="Path_101" data-name="Path 101" d="M17461.4-703.65h0Z" transform="translate(-17461.402 703.651)" fill="#5e3584"/>
        <path id="Path_102" data-name="Path 102" d="M17576.92,1432.05l3.465,3.509H17461.4l3.459-3.509Z" transform="translate(-17461.402 -1378.947)" fill="#7f3c8c"/>
        <path id="Path_103" data-name="Path 103" d="M17464.863-650.557l-3.461,3.509V-703.66l3.461,3.508Z" transform="translate(-17461.402 703.66)" fill="#48327e"/>
        <path id="Path_104" data-name="Path 104" d="M17464.863-700.142l-3.461-3.508h118.982l-3.465,3.508Z" transform="translate(-17461.402 703.65)" fill="#593583"/>
        <path id="Path_105" data-name="Path 105" d="M22169.2-700.142l3.457-3.508v56.612l-3.457-3.509Z" transform="translate(-22053.682 703.65)" fill="#843d8d"/>
        <path id="Path_106" data-name="Path 106" d="M17714.65-512.945H17602.6V-562.54h112.051Z" transform="translate(-17599.141 566.049)" fill="#663785"/>
      </g>
      <g id="_1683727779200" transform="translate(42.618 58.953)">
        <path id="Path_107" data-name="Path 107" d="M9343.576,4436.543l-5.172.11c-4.878-14.3-8.709-25.053-15.525-42.644,3.13.1,12.27.375,12.27.375l8.395,22.527c5.989-15.479,7.366-20.125,8.318-22.819,1.9.021,6.825.166,6.825.166,0,.779-2.919,8.317-5.595,15.663Z" transform="translate(-9322.879 -4394.01)" fill="rgba(63,45,90,0.75)"/>
      </g>
      <path id="Path_108" data-name="Path 108" d="M8358.49,2608.58q-2.616,0-11.768-.48c-2.613-.12-4.043-.18-4.277-.18v3.364q7.365,1.981,8.674,3a2.293,2.293,0,0,1,.893,1.863,3.64,3.64,0,0,1-.119.842q-.473,2.224-7.378,22.6-1.6,4.763-3.362,9.774h6.768q8.666-23.725,11.342-29.851,1.784-4.146,3.446-5.377t7.846-2.854v-3.364Q8363.536,2608.579,8358.49,2608.58Zm-46.948,8.953a5.726,5.726,0,0,1-.177-1.321,2.571,2.571,0,0,1,1.04-2.013q1.042-.871,6.866-2.313c.354-.08.89-.219,1.6-.42v-3.545q-11.117.659-16.875.66-4.046,0-16.88-.66v3.545q7.605,2.16,8.854,3.033a7.137,7.137,0,0,1,2.138,2.494q1.311,2.465,10.579,26.377c.784,2.024,1.546,4.016,2.306,6h11.532l-2.081-5.807Q8312.61,2621.921,8311.542,2617.532Z" transform="translate(-8269.444 -2592.659)" fill="#da3625"/>
      <path id="Path_109" data-name="Path 109" d="M8313.367,2605.207H8309.5q-7.6-22.3-18.552-50.275-9.132-23.3-10.419-25.695a7.028,7.028,0,0,0-2.1-2.43q-1.233-.847-8.721-2.954V2520.4q12.642.645,16.62.642,5.672,0,16.623-.642v3.453c-.7.2-1.232.332-1.58.41q-5.738,1.406-6.762,2.253a2.5,2.5,0,0,0-1.026,1.96,5.341,5.341,0,0,0,.178,1.288q1.052,4.274,8.77,25.353l11.105,30.622q7.206-18.617,12.6-34.486,6.8-19.849,7.269-22.016a3.636,3.636,0,0,0,.115-.818,2.217,2.217,0,0,0-.881-1.815q-1.285-1-8.541-2.926V2520.4q.349,0,4.213.176,9.013.468,11.59.466,4.978,0,11.878-.642v3.277q-6.079,1.579-7.723,2.78t-3.395,5.237q-3.568,8.076-17.966,47.643Z" transform="translate(-8252.468 -2507.316)" fill="#fefefe"/>
      <path id="Path_110" data-name="Path 110" d="M9227.066,4134.536h-3.861q-6.882-20.169-16.494-44.983c-.318-.829,11.131-.664,11.131-.664l9.5,26.18c5.633-14.556,8.744-23.422,9.639-25.956.313-.888,6.668.029,6.668.029-.373,1.019-4.639,12.617-7.154,19.527Z" transform="translate(-9166.93 -4037.174)" fill="#fefefe"/>
      <path id="Path_111" data-name="Path 111" d="M10752.526,3198.193h-.5v-.729c-.008-.2-.015-.4-.031-.595a6.61,6.61,0,0,0-.227-1.359c-.118-.407-.25-.815-.388-1.215-.117-.32-.255-.635-.4-.945a4.769,4.769,0,0,0-.328-.575c-.2-.306-.412-.606-.626-.906-.09-.128-.189-.253-.291-.375a.116.116,0,0,1-.015-.119c.116-.286.235-.571.352-.858.168-.41.328-.819.5-1.23.029-.075.068-.148.1-.229.085.109.168.209.245.315.229.319.467.633.678.963a5.581,5.581,0,0,1,.384.738c.141.332.257.673.374,1.016a8.511,8.511,0,0,1,.283,1.145c.039.219.081.437.112.656a3.963,3.963,0,0,1,.041.515c.015.4.029.8.026,1.2,0,.225-.033.451-.053.675-.015.157-.022.313-.042.472s-.046.33-.067.495c-.022.14-.036.28-.059.419-.024.158-.049.317-.07.473A.522.522,0,0,0,10752.526,3198.193Z" transform="translate(-10671.873 -3159.548)" fill="#e95721" fill-rule="evenodd"/>
      <path id="Path_112" data-name="Path 112" d="M10756.877,2545.333h-.249v-.036c0-.111,0-.223,0-.333s-.009-.2-.014-.3a3.3,3.3,0,0,0-.116-.69c-.062-.207-.124-.415-.2-.615-.059-.164-.127-.324-.2-.481a2.391,2.391,0,0,0-.17-.291c-.1-.155-.21-.308-.317-.46-.048-.065-.1-.128-.145-.19a.044.044,0,0,1-.011-.061c.06-.145.119-.29.18-.435.083-.208.164-.415.251-.624.014-.038.03-.074.05-.115.045.056.085.105.124.159.115.161.237.32.344.489a3,3,0,0,1,.2.375c.068.167.128.341.188.516a4.3,4.3,0,0,1,.143.58c.022.11.043.22.059.332.01.087.019.175.021.261.006.2.015.4.015.607,0,.113-.017.228-.026.342-.009.08-.016.161-.024.239s-.021.167-.031.251-.02.141-.033.213-.023.159-.034.239Z" transform="translate(-10677.454 -2527.111)" fill="#e95721" fill-rule="evenodd"/>
      <path id="Path_113" data-name="Path 113" d="M10904.473,2837.3h-.245v-.036c0-.111,0-.222,0-.333a2.639,2.639,0,0,0-.018-.3,3.319,3.319,0,0,0-.112-.69c-.06-.207-.126-.414-.2-.615a4.64,4.64,0,0,0-.2-.48,2.229,2.229,0,0,0-.168-.292c-.1-.156-.209-.307-.318-.459a1.536,1.536,0,0,0-.147-.19.055.055,0,0,1-.008-.062c.064-.144.121-.29.177-.434.088-.207.17-.415.254-.624.017-.038.036-.076.051-.116.039.055.084.106.122.159.12.162.237.321.345.489a2.211,2.211,0,0,1,.194.374c.071.168.132.342.193.516a4.2,4.2,0,0,1,.143.579c.016.112.041.222.056.333a1.991,1.991,0,0,1,.021.262c0,.2.015.4.013.606,0,.115-.02.229-.025.342-.009.08-.013.16-.021.24s-.024.167-.039.25-.015.141-.028.213-.022.161-.039.239Z" transform="translate(-10821.432 -2811.955)" fill="#e95721" fill-rule="evenodd"/>
      <path id="Path_114" data-name="Path 114" d="M9204.168,3307.837h-.621c0-.032-.007-.061-.007-.089,0-.278.007-.554,0-.831q-.007-.376-.036-.751a8.24,8.24,0,0,0-.287-1.717c-.15-.516-.31-1.029-.491-1.535q-.223-.607-.5-1.192a5.9,5.9,0,0,0-.419-.728c-.255-.386-.521-.766-.786-1.144-.115-.164-.24-.32-.364-.474a.139.139,0,0,1-.025-.152c.149-.36.3-.721.444-1.082.211-.519.417-1.036.627-1.555.037-.093.084-.186.124-.288.109.137.213.263.31.4.29.4.589.8.855,1.217a6.152,6.152,0,0,1,.483.932c.18.42.33.85.475,1.283a9.956,9.956,0,0,1,.359,1.448c.046.276.1.551.14.828.028.215.048.433.056.649.018.5.034,1.009.032,1.512,0,.284-.04.568-.066.852-.018.2-.031.4-.059.6s-.054.417-.08.627c-.026.175-.049.353-.077.53-.027.2-.058.4-.087.6A.561.561,0,0,0,9204.168,3307.837Z" transform="translate(-9160.78 -3264.144)" fill="#e95721" fill-rule="evenodd"/>
      <path id="Path_115" data-name="Path 115" d="M9694.742,4494.556h-.447a.364.364,0,0,1-.006-.066c0-.2.006-.4,0-.6s-.014-.369-.027-.549a5.916,5.916,0,0,0-.209-1.252c-.111-.375-.229-.749-.359-1.118a9.271,9.271,0,0,0-.363-.869,3.85,3.85,0,0,0-.307-.529c-.184-.28-.377-.559-.57-.834-.086-.118-.174-.232-.266-.343a.094.094,0,0,1-.018-.112c.109-.263.215-.526.324-.789.152-.377.3-.754.455-1.133.027-.068.061-.135.092-.21.076.1.156.193.225.29.211.293.428.583.625.886a4.846,4.846,0,0,1,.352.681c.129.3.238.618.344.935a7.2,7.2,0,0,1,.264,1.053c.033.2.074.4.1.6a4.315,4.315,0,0,1,.043.475c.012.367.025.735.025,1.1,0,.207-.031.415-.053.621-.008.146-.021.291-.037.435s-.043.3-.062.456q-.029.194-.053.385c-.023.146-.047.292-.068.436A.438.438,0,0,0,9694.742,4494.556Z" transform="translate(-9640.258 -4424.6)" fill="#56306b" fill-rule="evenodd"/>
      <path id="Path_116" data-name="Path 116" d="M10247.866,4638.46h-.259v-.384c0-.1-.009-.209-.018-.312a3.537,3.537,0,0,0-.117-.714c-.065-.215-.13-.429-.208-.639a4.759,4.759,0,0,0-.205-.495,2.18,2.18,0,0,0-.176-.3c-.105-.161-.215-.32-.325-.476-.051-.068-.1-.133-.158-.2a.071.071,0,0,1,0-.064c.061-.149.125-.3.188-.451.086-.215.17-.43.261-.647a1.033,1.033,0,0,1,.05-.118c.042.058.089.108.13.163.119.169.241.334.354.506a3.423,3.423,0,0,1,.2.388c.074.174.138.355.2.536a4.34,4.34,0,0,1,.152.6c.017.114.042.229.057.343.01.09.02.18.022.272.007.208.012.419.012.629,0,.117-.015.235-.024.353-.01.084-.016.167-.024.247s-.025.176-.037.262-.019.147-.028.22-.026.166-.037.249A.146.146,0,0,0,10247.866,4638.46Z" transform="translate(-10180.883 -4568.453)" fill="#56306b" fill-rule="evenodd"/>
      <path id="Path_117" data-name="Path 117" d="M8863.861,2826.95a18.6,18.6,0,0,1,1.812,2.02,2.872,2.872,0,0,1,.4,2.715s-.254.864-1.812,1.5a1.347,1.347,0,0,1-1.773-.484s-.513-.635.615-1.433a1.626,1.626,0,0,1,2.041.314s.685-.359.266-1.437a14.669,14.669,0,0,0-2.4-2.568s-1.132-.874-.317-1.708a.676.676,0,0,1,1.083.17A1,1,0,0,1,8863.861,2826.95Z" transform="translate(-8830.826 -2805.121)" fill="#e95721"/>
      <path id="Path_118" data-name="Path 118" d="M10869.424,3022.853a16.26,16.26,0,0,1,1.527,1.7,2.424,2.424,0,0,1,.335,2.289s-.215.728-1.527,1.264a1.135,1.135,0,0,1-1.5-.408s-.434-.536.516-1.208a1.372,1.372,0,0,1,1.723.264s.578-.3.226-1.212a12.808,12.808,0,0,0-2.025-2.165s-.953-.736-.263-1.442a.566.566,0,0,1,.908.146A.838.838,0,0,1,10869.424,3022.853Z" transform="translate(-10787.42 -2996.379)" fill="#e95721"/>
      <path id="Path_119" data-name="Path 119" d="M10865.67,2557.549a15.06,15.06,0,0,1,1.477,1.651,2.34,2.34,0,0,1,.33,2.217s-.211.706-1.481,1.226a1.1,1.1,0,0,1-1.451-.4s-.421-.519.5-1.17a1.327,1.327,0,0,1,1.668.255s.558-.292.216-1.174a12,12,0,0,0-1.964-2.1s-.92-.713-.252-1.4a.552.552,0,0,1,.885.139A.821.821,0,0,1,10865.67,2557.549Z" transform="translate(-10783.79 -2542.51)" fill="#e95721"/>
      <path id="Path_120" data-name="Path 120" d="M10693.18,3683.768a10.033,10.033,0,0,1,.971,1.083,1.547,1.547,0,0,1,.219,1.457s-.141.464-.975.805a.723.723,0,0,1-.953-.26s-.275-.34.332-.77a.87.87,0,0,1,1.094.169s.367-.191.145-.771a8.3,8.3,0,0,0-1.289-1.379s-.607-.468-.172-.917a.364.364,0,0,1,.582.091A.528.528,0,0,1,10693.18,3683.768Z" transform="translate(-10615.938 -3641.347)" fill="#e95721"/>
      <path id="Path_121" data-name="Path 121" d="M9443.1,4412.379a14.551,14.551,0,0,1,1.427,1.6,2.26,2.26,0,0,1,.317,2.141s-.2.683-1.433,1.184a1.061,1.061,0,0,1-1.4-.382s-.4-.5.484-1.131a1.288,1.288,0,0,1,1.613.248s.539-.284.209-1.134a11.773,11.773,0,0,0-1.9-2.028s-.893-.689-.247-1.349a.533.533,0,0,1,.854.135A.8.8,0,0,1,9443.1,4412.379Z" transform="translate(-9396.156 -4351.647)" fill="#56306b"/>
      <path id="Path_122" data-name="Path 122" d="M8571.682,2600.037c.773-.082,1.548-.167,2.321-.244.746-.078,1.491-.137,2.237-.224.49-.057.978-.14,1.461-.229a.74.74,0,0,1,.577.072c.213.145.435.286.646.44.1.068.179.165.118.3s-.188.124-.3.116c-.483-.043-.962-.118-1.443-.123-.7,0-1.394.019-2.081.079-.754.066-1.5.182-2.246.291a5.789,5.789,0,0,0-.74.188,1.054,1.054,0,0,1-1.083-.377.26.26,0,0,1-.041-.21c.025-.05.124-.079.194-.087a3.727,3.727,0,0,1,.384,0A.079.079,0,0,1,8571.682,2600.037Z" transform="translate(-8546.705 -2584.268)" fill="#e95721" fill-rule="evenodd"/>
      <path id="Path_123" data-name="Path 123" d="M9465.039,4704.139c.608-.077,1.215-.156,1.82-.23.589-.072,1.176-.125,1.76-.208.385-.052.768-.131,1.148-.216a.491.491,0,0,1,.451.069c.17.135.344.268.5.409a.236.236,0,0,1,.1.278c-.048.127-.146.119-.241.107-.378-.037-.754-.107-1.132-.111a14.168,14.168,0,0,0-1.635.074c-.589.063-1.174.169-1.762.272a3.624,3.624,0,0,0-.581.176.76.76,0,0,1-.853-.353.3.3,0,0,1-.034-.2.2.2,0,0,1,.154-.083,2.723,2.723,0,0,1,.3,0Z" transform="translate(-9418.276 -4636.516)" fill="#56306b" fill-rule="evenodd"/>
      <path id="Path_124" data-name="Path 124" d="M9951.719,5174.288c.781-.1,1.564-.2,2.347-.3.752-.091,1.506-.161,2.261-.269.491-.065.987-.166,1.479-.274a.62.62,0,0,1,.577.087c.22.175.44.346.653.527a.308.308,0,0,1,.118.36c-.062.161-.19.148-.308.138a14.154,14.154,0,0,0-1.457-.146,18.88,18.88,0,0,0-2.1.094c-.761.083-1.514.219-2.27.35a5.325,5.325,0,0,0-.746.228.976.976,0,0,1-1.095-.455.342.342,0,0,1-.037-.253c.022-.062.122-.095.192-.1a3.208,3.208,0,0,1,.388,0Z" transform="translate(-9892.907 -5094.858)" fill="#56306b" fill-rule="evenodd"/>
      <path id="Path_125" data-name="Path 125" d="M9279.76,4195.3c.465-.048.927-.1,1.393-.147.448-.046.9-.081,1.345-.133.292-.034.587-.084.874-.139a.441.441,0,0,1,.345.044c.132.085.264.17.389.264.056.041.107.1.07.178s-.114.074-.185.068c-.286-.024-.575-.071-.864-.073-.415,0-.833.012-1.245.047-.454.04-.9.11-1.352.177a3.056,3.056,0,0,0-.442.111.633.633,0,0,1-.651-.226.156.156,0,0,1-.021-.126c.012-.031.07-.048.111-.053.083-.007.155,0,.234,0Z" transform="translate(-9237.639 -4140.483)" fill="#56306b" fill-rule="evenodd"/>
      <path id="Path_126" data-name="Path 126" d="M9076.173,3673.3c.288-.032.569-.062.856-.091s.55-.051.824-.082c.179-.021.358-.051.535-.085a.278.278,0,0,1,.214.026c.079.054.157.105.237.163.034.025.064.06.042.11s-.068.046-.109.042c-.18-.016-.354-.044-.532-.046-.257,0-.512.009-.766.03-.276.024-.551.066-.826.108a1.971,1.971,0,0,0-.271.068.393.393,0,0,1-.4-.14.1.1,0,0,1-.013-.076c.01-.019.047-.029.072-.033.046,0,.095,0,.138,0Z" transform="translate(-9039.174 -3631.551)" fill="#e95721" fill-rule="evenodd"/>
      <path id="Path_127" data-name="Path 127" d="M9131.885,3238.132c.473-.05.945-.1,1.41-.15s.91-.082,1.367-.135c.3-.035.6-.085.891-.14a.446.446,0,0,1,.35.044c.131.088.264.174.395.268.055.041.105.1.068.181s-.115.076-.184.07c-.293-.026-.588-.073-.881-.074-.422,0-.842.012-1.266.048-.461.04-.914.11-1.369.177a3.678,3.678,0,0,0-.451.114.638.638,0,0,1-.658-.229.156.156,0,0,1-.023-.128c.012-.031.074-.049.115-.054a2.313,2.313,0,0,1,.236,0Z" transform="translate(-9093.385 -3206.964)" fill="#e95721" fill-rule="evenodd"/>
      <path id="Path_128" data-name="Path 128" d="M10949.328,3036.614l1.044-.111c.336-.034.675-.061,1.01-.1.219-.025.438-.064.654-.1a.33.33,0,0,1,.261.033c.1.064.2.129.29.2.045.032.078.075.053.135s-.081.055-.134.051c-.219-.019-.437-.054-.65-.055-.312,0-.628.008-.938.036-.338.029-.669.081-1.01.131a3.1,3.1,0,0,0-.334.084.47.47,0,0,1-.482-.169.11.11,0,0,1-.021-.095c.012-.022.057-.034.088-.039a1.466,1.466,0,0,1,.17,0Z" transform="translate(-10866.338 -3010.537)" fill="#e95721" fill-rule="evenodd"/>
      <path id="Path_129" data-name="Path 129" d="M10636.222,3617.441c.479-.051.956-.1,1.433-.151.46-.049.923-.085,1.382-.139.3-.035.6-.085.9-.141a.451.451,0,0,1,.355.045c.134.088.27.176.4.271.059.043.108.1.073.184s-.116.077-.193.071c-.293-.027-.591-.074-.889-.075-.427,0-.856.01-1.284.048-.461.042-.925.112-1.384.18a3.546,3.546,0,0,0-.459.115.646.646,0,0,1-.667-.232.155.155,0,0,1-.025-.13c.016-.031.078-.049.121-.052a1.976,1.976,0,0,1,.234,0S10636.222,3617.438,10636.222,3617.441Z" transform="translate(-10560.823 -3576.895)" fill="#e95721" fill-rule="evenodd"/>
      <path id="Path_130" data-name="Path 130" d="M8918.334,2560.22a16.028,16.028,0,0,0,.625-2.054c.038-.218-.259-.6-.5-.717-.165-.08-.549.115-.73.294C8917.061,2558.4,8917.224,2559.279,8918.334,2560.22Zm-.858,2.639c.653.846,1.359,1.684,1.966,2.59.2.294.127.766.176,1.157-.338-.134-.685-.25-1.013-.407a.284.284,0,0,1-.155-.43c-.042-.4.045-.878-.15-1.174-.536-.815-1.2-1.552-1.826-2.347.486-.592.921-1.127,1.45-1.776a10.854,10.854,0,0,1-1.049-.934,1.782,1.782,0,0,1,.244-2.7,1.47,1.47,0,0,1,2.193.912,3.528,3.528,0,0,1-.01,2.371A15.586,15.586,0,0,1,8917.476,2562.859Z" transform="translate(-8883.5 -2542.628)" fill="#e95721" fill-rule="evenodd"/>
      <path id="Path_131" data-name="Path 131" d="M9540.932,4134.969a15.477,15.477,0,0,0,.625-2.053c.043-.217-.256-.6-.494-.716-.168-.078-.549.114-.734.293C9539.66,4133.148,9539.822,4134.03,9540.932,4134.969Zm-.855,2.642c.654.845,1.357,1.683,1.967,2.588.2.3.123.768.174,1.158-.34-.133-.686-.25-1.014-.406a.279.279,0,0,1-.15-.431c-.047-.4.043-.878-.152-1.175-.537-.813-1.2-1.551-1.828-2.345.484-.594.922-1.128,1.447-1.775a11.415,11.415,0,0,1-1.045-.934,1.78,1.78,0,0,1,.242-2.7,1.477,1.477,0,0,1,2.2.913,3.574,3.574,0,0,1-.012,2.37A15.858,15.858,0,0,1,9540.076,4137.611Z" transform="translate(-9490.829 -4078.582)" fill="#56306b" fill-rule="evenodd"/>
      <path id="Path_132" data-name="Path 132" d="M10135.277,4910.136a10.3,10.3,0,0,0,.377-1.234c.021-.132-.156-.364-.3-.431-.1-.048-.33.069-.441.177C10134.512,4909.042,10134.609,4909.568,10135.277,4910.136Zm-.514,1.588c.391.506.814,1.009,1.182,1.554a1.706,1.706,0,0,1,.1.694c-.2-.08-.408-.149-.605-.244a.172.172,0,0,1-.1-.258c-.021-.239.029-.528-.086-.705-.324-.49-.719-.932-1.1-1.41.291-.357.551-.679.865-1.07a6.672,6.672,0,0,1-.627-.558,1.07,1.07,0,0,1,.146-1.62.889.889,0,0,1,1.322.547,2.135,2.135,0,0,1-.012,1.425A9.8,9.8,0,0,1,10134.764,4911.724Z" transform="translate(-10071.351 -4835.988)" fill="#56306b" fill-rule="evenodd"/>
      <path id="Path_133" data-name="Path 133" d="M9921.312,5415.008a12.309,12.309,0,0,0,.464-1.535c.03-.162-.191-.452-.369-.533-.122-.062-.41.084-.547.22C9920.358,5413.647,9920.481,5414.3,9921.312,5415.008Zm-.641,1.968c.484.634,1.015,1.26,1.468,1.936.145.219.091.574.131.866-.254-.1-.515-.188-.758-.306-.116-.056-.21-.17-.115-.319-.031-.3.033-.658-.112-.878-.4-.609-.893-1.161-1.363-1.753L9921,5415.2a8.678,8.678,0,0,1-.781-.7,1.33,1.33,0,0,1,.182-2.014,1.1,1.1,0,0,1,1.641.681,2.629,2.629,0,0,1-.008,1.77A11.816,11.816,0,0,1,9920.671,5416.976Z" transform="translate(-9862.353 -5327.883)" fill="#56306b" fill-rule="evenodd"/>
      <path id="Path_134" data-name="Path 134" d="M9048.182,3061.181a9.931,9.931,0,0,0,.408-1.331c.024-.14-.167-.391-.32-.464-.108-.051-.356.074-.474.191C9047.356,3060,9047.464,3060.572,9048.182,3061.181Zm-.553,1.711c.425.547.879,1.091,1.275,1.679a1.943,1.943,0,0,1,.115.749c-.224-.086-.446-.162-.658-.264-.1-.049-.186-.148-.1-.279-.028-.256.029-.569-.1-.76-.35-.529-.773-1.007-1.183-1.522.311-.382.6-.731.938-1.151a7,7,0,0,1-.681-.6,1.154,1.154,0,0,1,.16-1.747.954.954,0,0,1,1.423.591,2.347,2.347,0,0,1-.007,1.536A10.232,10.232,0,0,1,9047.629,3062.892Z" transform="translate(-9010.838 -3032.544)" fill="#e95721" fill-rule="evenodd"/>
      <path id="Path_135" data-name="Path 135" d="M9307.93,3801.97a9.935,9.935,0,0,0,.405-1.332c.027-.14-.169-.392-.324-.464-.1-.052-.351.075-.474.19C9307.1,3800.79,9307.21,3801.359,9307.93,3801.97Zm-.554,1.71c.42.549.88,1.092,1.273,1.681.129.189.08.494.114.75-.222-.087-.446-.163-.658-.265-.1-.05-.184-.15-.1-.28-.025-.256.03-.569-.095-.759-.349-.529-.776-1.008-1.185-1.521.314-.384.6-.731.939-1.152a6.854,6.854,0,0,1-.68-.6,1.159,1.159,0,0,1,.155-1.75.958.958,0,0,1,1.426.593,2.3,2.3,0,0,1-.008,1.536A10.236,10.236,0,0,1,9307.376,3803.681Z" transform="translate(-9264.211 -3755.033)" fill="#e95721" fill-rule="evenodd"/>
      <path id="Path_136" data-name="Path 136" d="M9602.314,4933.4a10.13,10.13,0,0,0,.406-1.331c.025-.14-.168-.393-.318-.465-.107-.05-.357.074-.475.192C9601.488,4932.22,9601.6,4932.791,9602.314,4933.4Zm-.555,1.711c.424.547.883,1.091,1.273,1.678a1.928,1.928,0,0,1,.115.75c-.221-.086-.445-.164-.658-.264a.185.185,0,0,1-.1-.279c-.025-.257.033-.573-.094-.761-.35-.528-.775-1.007-1.182-1.521.309-.385.594-.731.938-1.152a6.48,6.48,0,0,1-.68-.6,1.151,1.151,0,0,1,.158-1.747.956.956,0,0,1,1.424.59,2.307,2.307,0,0,1-.01,1.538A10.121,10.121,0,0,1,9601.76,4935.111Z" transform="translate(-9551.374 -4858.516)" fill="#56306b" fill-rule="evenodd"/>
      <path id="Path_137" data-name="Path 137" d="M11028.154,2599.751a13.849,13.849,0,0,0,.523-1.705c.029-.181-.217-.5-.416-.6-.137-.066-.455.1-.607.244C11027.1,2598.238,11027.232,2598.969,11028.154,2599.751Zm-.711,2.194c.543.7,1.129,1.4,1.635,2.152a2.44,2.44,0,0,1,.145.96c-.283-.111-.57-.208-.844-.338a.236.236,0,0,1-.129-.357c-.035-.329.039-.729-.125-.975-.445-.677-.986-1.29-1.512-1.949.4-.493.762-.937,1.2-1.477a8.976,8.976,0,0,1-.873-.775,1.481,1.481,0,0,1,.2-2.238,1.224,1.224,0,0,1,1.826.758,2.969,2.969,0,0,1-.008,1.968A13.158,13.158,0,0,1,11027.443,2601.945Z" transform="translate(-10941.892 -2581.772)" fill="#e95721" fill-rule="evenodd"/>
      <path id="Path_138" data-name="Path 138" d="M10693.417,3399.277a8.723,8.723,0,0,0,.315-1.05c.02-.11-.13-.307-.252-.366-.085-.039-.283.06-.374.151C10692.766,3398.347,10692.847,3398.8,10693.417,3399.277Zm-.44,1.35c.335.432.694.861,1,1.324.1.15.063.394.089.592-.175-.068-.351-.128-.516-.208-.085-.039-.146-.117-.082-.221-.021-.2.025-.447-.077-.6-.274-.417-.61-.794-.932-1.2.247-.3.472-.576.738-.908a6.09,6.09,0,0,1-.533-.476.91.91,0,0,1,.124-1.379.754.754,0,0,1,1.123.465,1.814,1.814,0,0,1-.007,1.213A8.091,8.091,0,0,1,10692.977,3400.627Z" transform="translate(-10615.961 -3362.767)" fill="#e95721" fill-rule="evenodd"/>
      <path id="Path_139" data-name="Path 139" d="M9043.614,2733.831h-.83v-6.289a1.781,1.781,0,0,1-.284.221,3.777,3.777,0,0,1-.415.246,4.782,4.782,0,0,1-.487.229,3.205,3.205,0,0,1-.5.168v-.843a4.9,4.9,0,0,0,.585-.2c.2-.087.4-.184.6-.291s.386-.218.562-.335a3.8,3.8,0,0,0,.455-.342h.313Z" transform="translate(-9005.167 -2708.303)" fill="#e95721"/>
      <path id="Path_140" data-name="Path 140" d="M9161.149,3583.812h-.632v-4.768a1.927,1.927,0,0,1-.211.167,3.222,3.222,0,0,1-.318.187c-.121.063-.241.119-.369.174a3.1,3.1,0,0,1-.379.126v-.639a3.865,3.865,0,0,0,.439-.154c.152-.067.309-.14.457-.22s.291-.166.425-.253a3.679,3.679,0,0,0,.349-.261h.239Z" transform="translate(-9120.405 -3539.039)" fill="#e95721"/>
      <path id="Path_141" data-name="Path 141" d="M10600.641,3796.581h-.629v-4.769a1.837,1.837,0,0,1-.215.168,3.149,3.149,0,0,1-.316.185c-.119.063-.24.121-.369.175a2.675,2.675,0,0,1-.381.126v-.64a3.3,3.3,0,0,0,.439-.154c.158-.067.311-.14.461-.221s.293-.166.426-.253a3.658,3.658,0,0,0,.348-.26h.236Z" transform="translate(-10524.58 -3746.553)" fill="#e95721"/>
      <path id="Path_142" data-name="Path 142" d="M8726.007,2666.1h-.412c0-.021,0-.041,0-.06,0-.183,0-.366,0-.55,0-.166-.01-.333-.026-.5a5.35,5.35,0,0,0-.188-1.138c-.1-.342-.2-.681-.326-1.018-.095-.269-.21-.531-.33-.791a3.714,3.714,0,0,0-.276-.482c-.173-.257-.349-.508-.524-.758-.075-.108-.159-.213-.243-.314a.086.086,0,0,1-.012-.1c.1-.24.194-.479.291-.72.14-.342.279-.686.415-1.029l.085-.191c.07.09.139.174.205.263.191.268.39.531.566.808a4.241,4.241,0,0,1,.32.617c.12.278.22.564.314.852a6.548,6.548,0,0,1,.237.96c.034.183.068.365.093.549a3.736,3.736,0,0,1,.034.431c.015.334.026.667.024,1,0,.188-.027.376-.043.564-.014.133-.023.264-.037.4s-.037.276-.059.415c-.015.118-.029.234-.046.351-.022.132-.04.264-.06.4A.366.366,0,0,0,8726.007,2666.1Z" transform="translate(-8695.509 -2641.932)" fill="#e95721" fill-rule="evenodd"/>
      <path id="Path_143" data-name="Path 143" d="M9436.846,3854.868h-.411c0-.02,0-.04,0-.06,0-.182,0-.366,0-.55,0-.166-.011-.332-.023-.5a5.466,5.466,0,0,0-.191-1.138q-.148-.513-.326-1.019-.146-.4-.327-.79a4.1,4.1,0,0,0-.28-.482c-.167-.257-.346-.507-.521-.759-.075-.107-.158-.211-.242-.313a.089.089,0,0,1-.016-.1c.1-.239.2-.478.293-.718.141-.342.28-.686.415-1.03.025-.062.056-.123.086-.19.071.09.139.174.205.263.192.266.388.529.563.806a4.314,4.314,0,0,1,.323.617c.118.279.218.564.314.851a6.119,6.119,0,0,1,.235.961c.035.183.072.365.1.55.016.14.029.286.035.43.011.333.023.667.021,1,0,.188-.027.377-.042.564-.014.132-.023.264-.038.4s-.037.275-.056.414c-.02.117-.032.233-.05.351s-.04.264-.061.395A.255.255,0,0,0,9436.846,3854.868Z" transform="translate(-9388.912 -3801.449)" fill="#e95721" fill-rule="evenodd"/>
      <path id="Path_144" data-name="Path 144" d="M9758.187,5130.292h-.6a.523.523,0,0,1-.009-.085c0-.266.009-.534,0-.8,0-.242-.017-.484-.033-.725a8.3,8.3,0,0,0-.277-1.654c-.146-.5-.3-.991-.475-1.479a12.412,12.412,0,0,0-.479-1.149,5.383,5.383,0,0,0-.405-.7c-.245-.372-.5-.736-.759-1.1-.11-.158-.23-.308-.351-.456a.126.126,0,0,1-.02-.146c.14-.35.284-.7.423-1.042.2-.5.405-1,.607-1.5.036-.088.078-.178.121-.275.1.13.205.251.3.382.281.386.565.77.824,1.173a5.625,5.625,0,0,1,.464.9c.172.405.32.821.46,1.237a9.052,9.052,0,0,1,.342,1.4c.05.266.1.529.137.8a4.965,4.965,0,0,1,.053.627c.02.486.033.969.033,1.453,0,.275-.041.549-.064.823-.017.19-.03.384-.052.574s-.057.4-.084.6c-.024.17-.046.338-.072.509-.026.191-.057.383-.085.575A.313.313,0,0,0,9758.187,5130.292Z" transform="translate(-9701.338 -5042.005)" fill="#56306b" fill-rule="evenodd"/>
      <path id="Path_145" data-name="Path 145" d="M9163.413,2926.4a8.516,8.516,0,0,1,.809.9,1.279,1.279,0,0,1,.173,1.206s-.111.385-.8.669a.6.6,0,0,1-.789-.216s-.228-.282.273-.637a.722.722,0,0,1,.908.138s.307-.159.119-.637a6.609,6.609,0,0,0-1.069-1.143s-.5-.389-.139-.761a.3.3,0,0,1,.48.076A.445.445,0,0,1,9163.413,2926.4Z" transform="translate(-9123.829 -2902.807)" fill="#e95721"/>
      <path id="Path_146" data-name="Path 146" d="M9064.81,2636.722c.563-.063,1.127-.129,1.693-.191.539-.06,1.086-.106,1.628-.174.36-.043.715-.109,1.07-.179a.5.5,0,0,1,.418.056c.156.113.317.225.47.343a.194.194,0,0,1,.086.233c-.044.1-.134.1-.224.09-.35-.033-.7-.093-1.049-.1-.509,0-1.016.015-1.521.063-.548.051-1.089.141-1.64.227a3.869,3.869,0,0,0-.536.147.744.744,0,0,1-.791-.3.218.218,0,0,1-.03-.164.194.194,0,0,1,.142-.067,2.593,2.593,0,0,1,.278,0S9064.81,2636.72,9064.81,2636.722Z" transform="translate(-9027.885 -2620.195)" fill="#e95721" fill-rule="evenodd"/>
      <path id="Path_147" data-name="Path 147" d="M9315.2,2572.5a8.108,8.108,0,0,1,.79.881,1.257,1.257,0,0,1,.178,1.184s-.113.377-.793.654a.59.59,0,0,1-.776-.212s-.222-.277.271-.624a.708.708,0,0,1,.89.136s.3-.157.118-.626a6.606,6.606,0,0,0-1.049-1.12s-.489-.382-.138-.745a.3.3,0,0,1,.475.074A.439.439,0,0,1,9315.2,2572.5Z" transform="translate(-9271.905 -2557.575)" fill="#e95721"/>
      <path id="Path_148" data-name="Path 148" d="M9172.694,3087.312a7.929,7.929,0,0,1,.763.853,1.22,1.22,0,0,1,.172,1.146s-.111.365-.767.634a.572.572,0,0,1-.753-.2s-.214-.268.261-.6a.689.689,0,0,1,.863.133s.288-.15.114-.607a6.289,6.289,0,0,0-1.018-1.085s-.476-.366-.133-.721a.288.288,0,0,1,.46.072A.427.427,0,0,1,9172.694,3087.312Z" transform="translate(-9132.912 -3059.771)" fill="#e95721"/>
      <path id="Path_149" data-name="Path 149" d="M10222.308,4794.184a13.749,13.749,0,0,1,1.327,1.479,2.1,2.1,0,0,1,.291,1.985s-.188.632-1.325,1.1a.992.992,0,0,1-1.3-.353s-.375-.465.454-1.05a1.184,1.184,0,0,1,1.489.229s.5-.263.2-1.051a10.955,10.955,0,0,0-1.758-1.879s-.825-.638-.23-1.25a.493.493,0,0,1,.79.126A.73.73,0,0,1,10222.308,4794.184Z" transform="translate(-10156.334 -4724.092)" fill="#56306b"/>
      <path id="Path_150" data-name="Path 150" d="M8939.639,3140.419h-.658v-4.962a1.357,1.357,0,0,1-.221.175c-.1.067-.209.13-.326.195s-.252.124-.385.18a2.769,2.769,0,0,1-.4.131v-.665a3.587,3.587,0,0,0,.463-.162c.156-.066.32-.144.475-.227s.3-.174.441-.265a3.3,3.3,0,0,0,.359-.27h.25Z" transform="translate(-8904.253 -3106.378)" fill="#e95721"/>
      <path id="Path_151" data-name="Path 151" d="M9062.112,3343.092a15.975,15.975,0,0,1,1.535,1.709,2.43,2.43,0,0,1,.339,2.3s-.218.731-1.534,1.27a1.148,1.148,0,0,1-1.506-.409s-.433-.539.523-1.212a1.376,1.376,0,0,1,1.728.264s.578-.3.226-1.216a12.779,12.779,0,0,0-2.028-2.173s-.958-.739-.269-1.446a.571.571,0,0,1,.916.145A.836.836,0,0,1,9062.112,3343.092Z" transform="translate(-9024.435 -3308.704)" fill="#e95721"/>
      <path id="Path_152" data-name="Path 152" d="M9465.38,2541.606h-.371v-2.795a.628.628,0,0,1-.125.1,1.592,1.592,0,0,1-.186.111c-.069.035-.141.068-.215.1a1.78,1.78,0,0,1-.225.075v-.375a2.069,2.069,0,0,0,.26-.092c.09-.038.18-.081.268-.128s.171-.1.251-.148a2.412,2.412,0,0,0,.2-.153h.139Z" transform="translate(-9417.937 -2524.77)" fill="#e95721"/>
      <path id="Path_153" data-name="Path 153" d="M9386.428,3604.28a12.824,12.824,0,0,1,1.27,1.416,2.005,2.005,0,0,1,.281,1.9s-.18.6-1.271,1.05a.941.941,0,0,1-1.238-.339s-.359-.445.43-1a1.136,1.136,0,0,1,1.428.218s.48-.251.188-1.005a10.5,10.5,0,0,0-1.678-1.8s-.795-.611-.225-1.2a.473.473,0,0,1,.758.121A.689.689,0,0,1,9386.428,3604.28Z" transform="translate(-9341.008 -3563.623)" fill="#e95721"/>
      <path id="Path_154" data-name="Path 154" d="M9196.426,3887.238a8.114,8.114,0,0,1,.765.854,1.213,1.213,0,0,1,.17,1.146s-.111.365-.765.634a.57.57,0,0,1-.75-.2s-.217-.269.26-.6a.682.682,0,0,1,.859.132s.29-.153.114-.608a6.489,6.489,0,0,0-1.013-1.084s-.479-.368-.136-.721a.287.287,0,0,1,.459.072A.425.425,0,0,1,9196.426,3887.238Z" transform="translate(-9156.066 -3839.934)" fill="#e95721"/>
      <path id="Path_155" data-name="Path 155" d="M9845.711,4850.556a12.747,12.747,0,0,1,1.148,1.279,1.822,1.822,0,0,1,.25,1.718s-.162.547-1.148.951a.856.856,0,0,1-1.124-.307s-.322-.4.392-.907a1.034,1.034,0,0,1,1.294.2s.43-.228.165-.909a9.5,9.5,0,0,0-1.518-1.624s-.716-.556-.2-1.082a.427.427,0,0,1,.687.108A.632.632,0,0,1,9845.711,4850.556Z" transform="translate(-9789.117 -4779.193)" fill="#56306b"/>
      <path id="Path_156" data-name="Path 156" d="M10048.035,5388.67a11.618,11.618,0,0,1,1.148,1.278,1.819,1.819,0,0,1,.252,1.719s-.162.546-1.148.948a.852.852,0,0,1-1.121-.306s-.326-.4.39-.907a1.029,1.029,0,0,1,1.292.2s.432-.229.167-.91a9.68,9.68,0,0,0-1.516-1.627s-.717-.552-.2-1.08a.425.425,0,0,1,.683.107A.613.613,0,0,1,10048.035,5388.67Z" transform="translate(-9986.479 -5304.012)" fill="#56306b"/>
      <path id="Path_157" data-name="Path 157" d="M9369.9,4269.147h-.371v-2.8a.63.63,0,0,1-.123.1,1.615,1.615,0,0,1-.187.11c-.068.034-.137.069-.211.1a1.674,1.674,0,0,1-.225.074v-.374a2.516,2.516,0,0,0,.256-.089c.094-.04.18-.084.27-.133a2.723,2.723,0,0,0,.248-.146,2.118,2.118,0,0,0,.207-.152h.137Z" transform="translate(-9324.804 -4209.716)" fill="#56306b"/>
      <path id="Path_158" data-name="Path 158" d="M10310.335,4604.492h-.672v-5.056a1.559,1.559,0,0,1-.226.177c-.1.067-.21.134-.331.2s-.257.124-.4.183a2.989,2.989,0,0,1-.4.133v-.677a3.768,3.768,0,0,0,.468-.164c.165-.07.329-.147.485-.233a4.752,4.752,0,0,0,.449-.27,3.467,3.467,0,0,0,.368-.276h.255Z" transform="translate(-10241.286 -4534.175)" fill="#56306b"/>
      <path id="Path_159" data-name="Path 159" d="M9861.527,5667.5h-.659v-4.959a1.354,1.354,0,0,1-.22.177c-.1.065-.207.13-.326.195s-.25.121-.386.179a2.986,2.986,0,0,1-.395.131v-.664a4.069,4.069,0,0,0,.459-.161c.161-.07.321-.144.475-.229s.3-.172.44-.265a2.881,2.881,0,0,0,.36-.27h.251Z" transform="translate(-9803.528 -5571.034)" fill="#56306b"/>
      <path id="Path_160" data-name="Path 160" d="M9646.221,4770.168h-.945v-7.114a2.026,2.026,0,0,1-.317.25c-.14.093-.3.186-.472.278s-.357.177-.552.259a3.719,3.719,0,0,1-.567.189v-.954a5.209,5.209,0,0,0,.662-.232c.229-.1.457-.205.679-.327s.436-.247.64-.382a4.932,4.932,0,0,0,.515-.385h.358Z" transform="translate(-9592.662 -4693.394)" fill="#56306b"/>
      <path id="Path_161" data-name="Path 161" d="M10080.146,5246.39h-.271c0-.016,0-.026,0-.041,0-.119,0-.241,0-.363s0-.218-.013-.327a3.574,3.574,0,0,0-.126-.75q-.1-.335-.215-.67c-.065-.176-.139-.351-.216-.521a2.3,2.3,0,0,0-.188-.317c-.108-.168-.225-.336-.341-.5a2.354,2.354,0,0,0-.16-.205.065.065,0,0,1-.009-.068c.063-.158.13-.315.194-.473.091-.225.182-.453.274-.68.018-.04.035-.079.053-.125.048.061.094.115.135.173.128.177.258.351.376.532a3.622,3.622,0,0,1,.211.406c.075.185.142.373.207.562a4.229,4.229,0,0,1,.154.632c.022.118.047.239.063.361a2.32,2.32,0,0,1,.022.283c.01.221.019.44.015.66,0,.125-.018.249-.027.371-.009.09-.015.176-.024.263s-.025.183-.035.272-.023.154-.034.231-.026.175-.039.262C10080.145,5246.367,10080.146,5246.374,10080.146,5246.39Z" transform="translate(-10017.204 -5161.131)" fill="#56306b" fill-rule="evenodd"/>
      <path id="Path_162" data-name="Path 162" d="M10391,4310.7a15.74,15.74,0,0,1,1.529,1.71,2.433,2.433,0,0,1,.34,2.3s-.216.73-1.532,1.271a1.142,1.142,0,0,1-1.5-.411s-.435-.538.522-1.212a1.376,1.376,0,0,1,1.727.265s.577-.3.226-1.217a12.76,12.76,0,0,0-2.032-2.173s-.954-.739-.27-1.445a.573.573,0,0,1,.918.143A.85.85,0,0,1,10391,4310.7Z" transform="translate(-10320.728 -4252.408)" fill="#56306b"/>
      <path id="Path_163" data-name="Path 163" d="M10424.738,4155.29c.479-.05.954-.1,1.432-.15.46-.048.921-.084,1.38-.139.3-.033.6-.084.9-.141a.466.466,0,0,1,.355.044c.134.09.271.177.4.271.058.043.108.1.073.184s-.12.078-.188.071c-.3-.026-.6-.075-.892-.075-.431,0-.856.012-1.286.048-.462.042-.925.114-1.383.182a3.594,3.594,0,0,0-.459.117.654.654,0,0,1-.666-.234.158.158,0,0,1-.026-.129c.016-.033.075-.051.121-.054a2.35,2.35,0,0,1,.235,0S10424.738,4155.288,10424.738,4155.29Z" transform="translate(-10354.528 -4101.456)" fill="#56306b" fill-rule="evenodd"/>
      <path id="Path_164" data-name="Path 164" d="M10498.984,4244.312h-.379v-2.833a.725.725,0,0,1-.128.1,1.605,1.605,0,0,1-.186.112,2.328,2.328,0,0,1-.221.1,1.652,1.652,0,0,1-.223.077v-.381a2.259,2.259,0,0,0,.26-.091c.092-.04.184-.083.272-.131s.174-.1.256-.152a2.384,2.384,0,0,0,.2-.153h.145Z" transform="translate(-10426.168 -4185.45)" fill="#56306b"/>
      <path id="Path_165" data-name="Path 165" d="M10538.532,3906.061a7.5,7.5,0,0,0,.293-.961c.019-.1-.12-.283-.231-.336-.078-.037-.259.055-.345.136C10537.936,3905.209,10538.012,3905.62,10538.532,3906.061Zm-.4,1.237c.306.4.635.787.919,1.212.092.137.057.358.082.542-.156-.062-.32-.117-.471-.191-.075-.033-.136-.1-.072-.2-.021-.186.019-.412-.072-.549-.252-.381-.559-.728-.854-1.1.228-.277.428-.527.675-.833a5.3,5.3,0,0,1-.487-.436.832.832,0,0,1,.113-1.261.687.687,0,0,1,1.027.427,1.688,1.688,0,0,1,0,1.109A7.423,7.423,0,0,1,10538.131,3907.3Z" transform="translate(-10464.96 -3857.18)" fill="#e95721" fill-rule="evenodd"/>
      <path id="Path_166" data-name="Path 166" d="M10793.6,3060.333h-.434v-3.282a.792.792,0,0,1-.146.114,2.207,2.207,0,0,1-.213.13c-.086.042-.168.081-.252.119a1.91,1.91,0,0,1-.266.087v-.44a2.575,2.575,0,0,0,.3-.106c.1-.046.213-.095.314-.15a3.252,3.252,0,0,0,.291-.175,2.247,2.247,0,0,0,.236-.179h.164Z" transform="translate(-10713.39 -3030.205)" fill="#e95721"/>
      <path id="Path_167" data-name="Path 167" d="M11274.272,2557.124h-.435v-3.281a1,1,0,0,1-.146.115,2.447,2.447,0,0,1-.216.128c-.084.042-.167.081-.255.12a1.849,1.849,0,0,1-.264.087v-.439a2.615,2.615,0,0,0,.307-.109,3.165,3.165,0,0,0,.313-.15,2.958,2.958,0,0,0,.293-.175,2.329,2.329,0,0,0,.24-.179h.163Z" transform="translate(-11182.262 -2539.339)" fill="#e95721"/>
      <path id="Path_168" data-name="Path 168" d="M10489.287,2572.4c.569-.095,1.14-.2,1.713-.286.551-.088,1.1-.157,1.658-.259.357-.067.719-.163,1.078-.268a.38.38,0,0,1,.428.084c.157.168.318.334.477.511a.35.35,0,0,1,.084.348c-.048.156-.139.145-.226.134a8.672,8.672,0,0,0-1.065-.142,10.387,10.387,0,0,0-1.539.094c-.556.076-1.108.21-1.663.337a3.2,3.2,0,0,0-.546.22.654.654,0,0,1-.8-.441.441.441,0,0,1-.029-.244.179.179,0,0,1,.146-.1,1.7,1.7,0,0,1,.28,0A.031.031,0,0,0,10489.287,2572.4Z" transform="translate(-10417.432 -2557.199)" fill="#e95721" fill-rule="evenodd"/>
      <path id="Path_169" data-name="Path 169" d="M11365.3,2560.606a4.737,4.737,0,0,0,.194-.637c.012-.066-.081-.187-.155-.222-.049-.025-.171.036-.224.091C11364.907,2560.043,11364.956,2560.314,11365.3,2560.606Zm-.265.818c.205.262.421.522.609.8a.935.935,0,0,1,.054.357c-.1-.04-.213-.076-.312-.125-.05-.024-.09-.071-.05-.134-.012-.123.018-.272-.046-.363-.166-.254-.369-.481-.565-.728.148-.184.284-.35.448-.55a3.544,3.544,0,0,1-.327-.29.552.552,0,0,1,.078-.835.457.457,0,0,1,.681.282,1.118,1.118,0,0,1,0,.734A4.821,4.821,0,0,1,11365.036,2561.424Z" transform="translate(-11271.742 -2545.433)" fill="#e95721" fill-rule="evenodd"/>
      <path id="Path_170" data-name="Path 170" d="M11145.347,2592.183h-.247v-.036c0-.111,0-.223,0-.333s0-.2-.013-.3a3.24,3.24,0,0,0-.115-.689c-.062-.208-.122-.414-.2-.615-.059-.163-.128-.323-.2-.479a2.066,2.066,0,0,0-.169-.292c-.1-.156-.205-.309-.314-.459-.046-.065-.1-.128-.147-.191a.055.055,0,0,1-.007-.061c.057-.144.115-.291.177-.434.087-.208.167-.416.252-.625a.874.874,0,0,1,.051-.116c.042.055.084.1.122.16.116.16.236.32.346.488a2.747,2.747,0,0,1,.19.374c.074.168.133.342.19.516a3.478,3.478,0,0,1,.146.58c.02.11.041.221.061.332.011.087.016.175.019.262.006.2.013.4.013.606,0,.114-.016.229-.025.342-.006.08-.013.159-.02.239s-.026.167-.037.251-.019.142-.03.213-.025.16-.038.24Z" transform="translate(-11056.399 -2572.797)" fill="#e95721" fill-rule="evenodd"/>
      <g id="_1720109547808" transform="translate(57.533 104.424)">
        <path id="Path_171" data-name="Path 171" d="M9925.451,6222.779l.842,1.927,2.092.21-1.568,1.4.449,2.057-1.814-1.062-1.816,1.062.443-2.057-1.568-1.4,2.1-.21Z" transform="translate(-9922.51 -6222.779)" fill="rgba(43,42,41,0.75)"/>
      </g>
      <path id="Path_172" data-name="Path 172" d="M9874.635,6222.779l.85,1.927,2.094.21-1.568,1.4.445,2.057-1.82-1.062-1.811,1.063.449-2.057-1.572-1.4,2.094-.21Z" transform="translate(-9815.416 -6118.354)" fill="#fefefe"/>
      <g id="_1720109544672" transform="translate(70.352 104.424)">
        <path id="Path_173" data-name="Path 173" d="M10448.238,6222.779l.844,1.927,2.1.21-1.574,1.4.447,2.057-1.812-1.062-1.818,1.062.451-2.057-1.574-1.4,2.094-.21Z" transform="translate(-10445.297 -6222.779)" fill="rgba(43,42,41,0.75)"/>
      </g>
      <path id="Path_174" data-name="Path 174" d="M10397.438,6222.779l.848,1.927,2.094.21-1.574,1.4.449,2.057-1.816-1.062-1.814,1.063.447-2.057-1.57-1.4,2.094-.21Z" transform="translate(-10325.392 -6118.354)" fill="#fefefe"/>
      <g id="_1720109545376" transform="translate(83.172 104.424)">
        <path id="Path_175" data-name="Path 175" d="M10971.038,6222.779l.844,1.927,2.095.21-1.574,1.4.449,2.057-1.813-1.062-1.821,1.062.452-2.057-1.568-1.4,2.09-.21Z" transform="translate(-10968.101 -6222.779)" fill="rgba(43,42,41,0.75)"/>
      </g>
      <path id="Path_176" data-name="Path 176" d="M10920.24,6222.779l.844,1.927,2.094.21-1.574,1.4.451,2.057-1.814-1.062-1.818,1.063.445-2.057-1.568-1.4,2.092-.21Z" transform="translate(-10835.371 -6118.354)" fill="#fefefe"/>
      <g id="_1720109544320" transform="translate(95.745 104.424)">
        <path id="Path_177" data-name="Path 177" d="M11493.738,6222.779l.842,1.927,2.094.21-1.568,1.4.449,2.057-1.816-1.062-1.818,1.062.447-2.057-1.568-1.4,2.094-.21Z" transform="translate(-11490.799 -6222.779)" fill="rgba(43,42,41,0.75)"/>
      </g>
      <path id="Path_178" data-name="Path 178" d="M11442.94,6222.779l.844,1.927,2.094.21-1.57,1.4.45,2.057-1.817-1.062-1.818,1.063.449-2.057-1.573-1.4,2.1-.21Z" transform="translate(-11345.254 -6118.354)" fill="#fefefe"/>
      <g id="_1720109541824" transform="translate(108.742 104.424)">
        <path id="Path_179" data-name="Path 179" d="M12016.441,6222.779l.846,1.927,2.094.21-1.571,1.4.447,2.057-1.815-1.062-1.816,1.062.45-2.057-1.575-1.4,2.095-.21Z" transform="translate(-12013.5 -6222.779)" fill="rgba(43,42,41,0.75)"/>
      </g>
      <path id="Path_180" data-name="Path 180" d="M11965.642,6222.779l.844,1.927,2.1.21-1.574,1.4.449,2.057-1.814-1.062-1.815,1.063.444-2.057-1.57-1.4,2.1-.21Z" transform="translate(-11855.222 -6118.354)" fill="#fefefe"/>
      <g id="_1720109541728" transform="translate(6.344 104.424)">
        <path id="Path_181" data-name="Path 181" d="M7834.408,6222.779l.846,1.927,2.094.21-1.57,1.4.449,2.057-1.818-1.062-1.816,1.062.449-2.057-1.572-1.4,2.1-.21Z" transform="translate(-7831.469 -6222.779)" fill="rgba(43,42,41,0.75)"/>
      </g>
      <path id="Path_182" data-name="Path 182" d="M7783.607,6222.779l.848,1.927,2.093.21-1.57,1.4.446,2.057-1.816-1.062-1.815,1.063.449-2.057-1.571-1.4,2.093-.21Z" transform="translate(-7775.588 -6118.354)" fill="#fefefe"/>
      <g id="_1720109539456" transform="translate(19.075 104.424)">
        <path id="Path_183" data-name="Path 183" d="M8357.14,6222.779l.845,1.927,2.1.21-1.573,1.4.449,2.057-1.816-1.062-1.817,1.062.451-2.057-1.573-1.4,2.094-.21Z" transform="translate(-8354.2 -6222.779)" fill="rgba(43,42,41,0.75)"/>
      </g>
      <path id="Path_184" data-name="Path 184" d="M8306.339,6222.779l.846,1.927,2.094.21-1.569,1.4.448,2.057-1.818-1.062-1.814,1.063.447-2.057-1.571-1.4,2.095-.21Z" transform="translate(-8285.321 -6118.354)" fill="#fefefe"/>
      <g id="_1720109539680" transform="translate(31.895 104.424)">
        <path id="Path_185" data-name="Path 185" d="M8879.937,6222.779l.845,1.927,2.094.21-1.569,1.4.448,2.057-1.817-1.062-1.814,1.062.447-2.057-1.569-1.4,2.094-.21Z" transform="translate(-8877 -6222.779)" fill="rgba(43,42,41,0.75)"/>
      </g>
      <path id="Path_186" data-name="Path 186" d="M8829.14,6222.779l.845,1.927,2.092.21-1.569,1.4.449,2.057-1.816-1.062-1.817,1.063.449-2.057-1.572-1.4,2.1-.21Z" transform="translate(-8795.552 -6118.354)" fill="#fefefe"/>
      <g id="_1720106601936" transform="translate(44.713 104.424)">
        <path id="Path_187" data-name="Path 187" d="M9402.677,6222.779l.845,1.927,2.093.21-1.569,1.4.452,2.057-1.82-1.062-1.812,1.062.446-2.057-1.571-1.4,2.094-.21Z" transform="translate(-9399.739 -6222.779)" fill="rgba(43,42,41,0.75)"/>
      </g>
      <path id="Path_188" data-name="Path 188" d="M9351.883,6222.779l.841,1.927,2.094.21-1.569,1.4.449,2.057-1.814-1.062-1.818,1.063.447-2.057-1.573-1.4,2.1-.21Z" transform="translate(-9305.471 -6118.354)" fill="#fefefe"/>
    </g>
    <path id="Path_189" data-name="Path 189" d="M7611,6994.165l3.3-7.135h.906l-4.2,8.8-4.2-8.8h.909Z" transform="translate(-11792.422 -6986.492)" fill="#646262" fill-rule="evenodd"/>
    <path id="Path_190" data-name="Path 190" d="M8113.366,6868.014v8.563h-.785v-8.563Zm.393-2.259a.757.757,0,0,1-.229.559.791.791,0,0,1-1.108,0,.75.75,0,0,1-.229-.559.734.734,0,0,1,.229-.55.794.794,0,0,1,1.108,0A.741.741,0,0,1,8113.759,6865.755Z" transform="translate(-12285.245 -6867.477)" fill="#646262" fill-rule="evenodd"/>
    <path id="Path_191" data-name="Path 191" d="M8368.481,6980.249a6.445,6.445,0,0,1-1.39-.925,2.06,2.06,0,0,1,1.447-3.514,1.916,1.916,0,0,1,1.414.558,1.741,1.741,0,0,1,.542,1.247v.043l-.683.271a1.708,1.708,0,0,0-.413-.994,1.156,1.156,0,0,0-.86-.331,1.269,1.269,0,0,0-.9,2.171,6.026,6.026,0,0,0,.924.663,7.4,7.4,0,0,1,1.587,1.079,2.555,2.555,0,0,1,0,3.6,2.537,2.537,0,0,1-3.594,0,2.277,2.277,0,0,1-.741-1.635l.776-.2a1.736,1.736,0,0,0,.52,1.281,1.761,1.761,0,1,0,2.488-2.493,7.437,7.437,0,0,0-1.125-.818Z" transform="translate(-12532.836 -6975.551)" fill="#646262" fill-rule="evenodd"/>
    <path id="Path_192" data-name="Path 192" d="M8766.664,6965.159h-.788v-1.743a5.541,5.541,0,0,1-.5.585,4.793,4.793,0,1,1,0-6.776,5.425,5.425,0,0,1,.5.583V6956.6h.788Zm-.788-3.766v-1.554a3.921,3.921,0,1,0,0,1.554Z" transform="translate(-12914.638 -6956.058)" fill="#646262" fill-rule="evenodd"/>
    <path id="Path_193" data-name="Path 193" d="M9330.322,6963.555a3.775,3.775,0,0,0,2.637,1.012,3.817,3.817,0,0,0,2.8-1.159c.1-.1.193-.2.277-.306l.832.3a5.555,5.555,0,0,1-.516.6,4.786,4.786,0,1,1-.418-7.159c.137.116.279.245.418.384.055.052.1.105.148.157l-.592.593Zm5.008-6.113a3.958,3.958,0,0,0-5.539,5.538Z" transform="translate(-13471.606 -6956.059)" fill="#646262" fill-rule="evenodd"/>
    <path id="Path_194" data-name="Path 194" d="M9868.529,6979.169h.786v1.561a4.983,4.983,0,0,1,.567-.671,3.252,3.252,0,0,1,2.128-1.089v.854a2.415,2.415,0,0,0-1.535.828,3.758,3.758,0,0,0-1.16,2.66v4.423h-.786Z" transform="translate(-13998.687 -6978.633)" fill="#646262" fill-rule="evenodd"/>
    <path id="Path_195" data-name="Path 195" d="M10161.847,6955.819a4.8,4.8,0,1,1-3.381,1.405A4.617,4.617,0,0,1,10161.847,6955.819Zm-3.958,4.8a3.959,3.959,0,1,0,1.16-2.8A3.791,3.791,0,0,0,10157.889,6960.616Z" transform="translate(-14280.185 -6956.058)" fill="#646262" fill-rule="evenodd"/>
    <path id="Path_196" data-name="Path 196" d="M10690.739,7274.356a.746.746,0,0,1-.23.557.785.785,0,0,1-1.107,0,.78.78,0,0,1,.552-1.333.761.761,0,0,1,.556.227A.741.741,0,0,1,10690.739,7274.356Z" transform="translate(-14799.18 -7265.917)" fill="#646262" fill-rule="evenodd"/>
    <path id="Path_197" data-name="Path 197" d="M10933.527,6963.1l.827.3a5.069,5.069,0,0,1-.517.6,4.793,4.793,0,1,1,0-6.775,5.158,5.158,0,0,1,.517.593l-.827.306c-.087-.1-.182-.21-.28-.313a3.958,3.958,0,1,0,0,5.6C10933.346,6963.31,10933.44,6963.206,10933.527,6963.1Z" transform="translate(-15029.937 -6956.059)" fill="#646262" fill-rule="evenodd"/>
    <path id="Path_198" data-name="Path 198" d="M11449.751,6955.819a4.795,4.795,0,1,1-3.388,1.405A4.618,4.618,0,0,1,11449.751,6955.819Zm-3.963,4.8a3.959,3.959,0,1,0,1.16-2.8A3.81,3.81,0,0,0,11445.788,6960.616Z" transform="translate(-15536.734 -6956.058)" fill="#646262" fill-rule="evenodd"/>
    <path id="Path_199" data-name="Path 199" d="M12020.5,6967.206h.787v.2a2.532,2.532,0,0,1,3.9.472,2.824,2.824,0,0,1,.357-.437,2.551,2.551,0,0,1,3.594,0,2.485,2.485,0,0,1,.741,1.719v6.611h-.787v-6.611h.01a1.763,1.763,0,0,0-3.522.122v6.489h-.782v-6.611h.006a1.754,1.754,0,0,0-1.763-1.674,1.765,1.765,0,0,0-1.75,1.6v6.682h-.787Z" transform="translate(-16097.962 -6966.668)" fill="#646262" fill-rule="evenodd"/>
  </g>
</svg>
