<?xml version="1.0" encoding="UTF-8" standalone="no"?>
<svg
   xmlns:dc="http://purl.org/dc/elements/1.1/"
   xmlns:cc="http://creativecommons.org/ns#"
   xmlns:rdf="http://www.w3.org/1999/02/22-rdf-syntax-ns#"
   xmlns:svg="http://www.w3.org/2000/svg"
   xmlns="http://www.w3.org/2000/svg"
   xmlns:sodipodi="http://sodipodi.sourceforge.net/DTD/sodipodi-0.dtd"
   xmlns:inkscape="http://www.inkscape.org/namespaces/inkscape"
   width="1262"
   height="1078"
   viewBox="0 0 1262 1078"
   fill="none"
   version="1.1"
   id="svg200"
   sodipodi:docname="call+us.svg"
   inkscape:version="0.92.3 (2405546, 2018-03-11)">
  <metadata
     id="metadata204">
    <rdf:RDF>
      <cc:Work
         rdf:about="">
        <dc:format>image/svg+xml</dc:format>
        <dc:type
           rdf:resource="http://purl.org/dc/dcmitype/StillImage" />
      </cc:Work>
    </rdf:RDF>
  </metadata>
  <sodipodi:namedview
     pagecolor="#ffffff"
     bordercolor="#666666"
     borderopacity="1"
     objecttolerance="10"
     gridtolerance="10"
     guidetolerance="10"
     inkscape:pageopacity="0"
     inkscape:pageshadow="2"
     inkscape:window-width="1853"
     inkscape:window-height="1025"
     id="namedview202"
     showgrid="false"
     inkscape:zoom="0.43784787"
     inkscape:cx="631"
     inkscape:cy="539"
     inkscape:window-x="67"
     inkscape:window-y="27"
     inkscape:window-maximized="1"
     inkscape:current-layer="svg200" />
  <path
     d="m 374.93,805.46847 c 0,0 -132.93,-20.28 -114.88,-121.64 18.05,-101.36 69.83,-90.1 72.08,-166.68 2.25,-76.58 92.35,-103.61 141.91,-60.82 49.56,42.79 11.26,83.34 47.3,200.47 53.8,174.86 -146.41,148.67 -146.41,148.67 z"
     id="path2"
     inkscape:connector-curvature="0"
     style="opacity:0.15;fill:#d2cafc" />
  <path
     d="m 676.56,615.24847 c 0,0 30.36,-187.39 173.25,-160.63 142.89001,26.76 126.32,99.78 234.43,104 108.11,4.22 145.11,131.76 84,201.17 -61.11,69.41 -117.83,14.82 -283.69,64.19 -247.55,73.65 -207.99,-208.73 -207.99,-208.73 z"
     id="path4"
     inkscape:connector-curvature="0"
     style="opacity:0.15;fill:#d2cafc" />
  <path
     d="m 1050.92,1014.2984 h 4.47 l -30.05,-135.89993 -13.59,0.46 15.21,52.22 -33.02999,1.04 -1.88,0.05 -3.69001,0.12 0.93,-45.58 0.16,-7.79 -13.56,-0.52 1.83,54.22 -37.64,1.18 14.29,-47.09 1.85,-6.09 -15.28,0.04 -1.37,6.05 -29.24,127.54993 h 5.25 l 21.46,-70.42993 41.01,-1.57 2.4,71.68993 h 6.26 l 1.45,-72.07993 0.2,-0.01 0.4,-0.02 40.88,-1.56 z"
     id="path6"
     inkscape:connector-curvature="0"
     style="fill:#9085cb" />
  <path
     d="m 908.35,873.11847 c 12.77,-6.26 64.37,-2.88 64.37,-2.88 0,0 -13.5,-184.44 5.34,-185.89 18.84001,-1.45 66.82,-10.8 68.14,15.89 1.41,28.38 -2.74,180.94 -13.64,180.94 -24.85,0 -100.55,5.4 -123.41,0 -5.89,-1.37 -0.8,-8.06 -0.8,-8.06 z"
     id="path8"
     inkscape:connector-curvature="0"
     style="fill:#9085cb" />
  <path
     d="M 892.73,794.86847 H 551.48 v 10 h 341.25 z"
     id="path10"
     inkscape:connector-curvature="0"
     style="opacity:0.7;fill:#d2cafc" />
  <path
     d="M 892.73,804.86847 H 551.48 v 207.40993 h 341.25 z"
     id="path12"
     style="opacity:0.7;fill:url(#paint0_linear)"
     inkscape:connector-curvature="0" />
  <path
     d="M 1261.01,1013.6284 H 0.74999998 v 10.55 H 1261.01 Z"
     id="path14"
     inkscape:connector-curvature="0"
     style="opacity:0.4;fill:#d2cafc" />
  <path
     d="m 192.26,484.38847 c -6.928,-10e-4 -13.747,1.72 -19.844,5.009 -6.097,3.289 -11.282,8.041 -15.086,13.831 -4.017,-2.269 -8.558,-3.446 -13.171,-3.412 -4.614,0.033 -9.137,1.275 -13.121,3.603 -3.983,2.327 -7.287,5.657 -9.582,9.66 -2.295,4.002 -3.5,8.536 -3.496,13.149 h 116.12 c 0.003,-5.494 -1.077,-10.934 -3.178,-16.01 -2.1,-5.076 -5.18,-9.689 -9.064,-13.574 -3.883,-3.886 -8.494,-6.968 -13.57,-9.071 -5.075,-2.103 -10.514,-3.185 -16.008,-3.185 z"
     id="path18"
     inkscape:connector-curvature="0"
     style="clip-rule:evenodd;fill:#d2cafc;fill-opacity:0.5;fill-rule:evenodd" />
  <path
     d="m 1027.41,391.43847 c 10.12,-0.002 20.07,2.513 28.98,7.317 8.9,4.804 16.47,11.746 22.02,20.203 5.86,-3.317 12.49,-5.038 19.23,-4.993 6.74,0.046 13.34,1.857 19.16,5.252 5.82,3.396 10.65,8.258 14,14.101 3.35,5.843 5.11,12.463 5.11,19.2 h -169.6 c 0,-8.023 1.58,-15.967 4.651,-23.379 3.071,-7.412 7.572,-14.146 13.246,-19.818 5.674,-5.673 12.41001,-10.171 19.823,-13.24 7.41,-3.068 15.36,-4.646 23.38,-4.643 z"
     id="path20"
     inkscape:connector-curvature="0"
     style="clip-rule:evenodd;fill:#d2cafc;fill-opacity:0.5;fill-rule:evenodd" />
  <path
     d="m 400,881.74847 c 0.89,0.93 2,61.1 9.52,116.42997 l 14.52,5.47996 c 2.45,-63.81993 -2.76,-127.18993 -7.27,-131.49993 -6.77,-6.48 -18.13,8.2 -16.77,9.59 z"
     id="path22"
     inkscape:connector-curvature="0"
     style="clip-rule:evenodd;fill:#fcdeab;fill-rule:evenodd" />
  <path
     d="m 349.75,885.14747 c -0.73,1 5.42,58.14 4.94,111.46997 l -13.1,6.93996 c -10,-60.18993 -12.64,-120.85993 -8.88,-125.48993 5.63,-6.95 18.14,5.6 17.04,7.08 z"
     id="path24"
     inkscape:connector-curvature="0"
     style="clip-rule:evenodd;fill:#fcdeab;fill-rule:evenodd" />
  <path
     d="m 445.51,1013.1184 -40.92,-0.6 0.3,-20.45996 z"
     id="path26"
     inkscape:connector-curvature="0"
     style="clip-rule:evenodd;fill:#1f0744;fill-rule:evenodd" />
  <path
     d="m 318.85,1015.7584 40.72,-4 -2,-20.35996 z"
     id="path28"
     inkscape:connector-curvature="0"
     style="clip-rule:evenodd;fill:#1f0744;fill-rule:evenodd" />
  <path
     d="m 347.4,756.00847 c 0,0 22.6,4.89 78.64,-1.47 l 0.84,226.70997 -21.8,0.65 -11.08,-107.67997 -13,-75.82 c 0,0 -15.27,44.2 -21.26,56.19 -4.77,9.54 -6.29,10.19 -4.73,50.36 2,50.34997 3.21,77.93997 3.21,77.93997 l -21.8,0.66 c 0,0 -23,-105.94997 -16.79,-125.92997 6.21,-19.98 27.77,-101.61 27.77,-101.61 z"
     id="path30"
     inkscape:connector-curvature="0"
     style="fill:#14b0bc" />
  <g
     id="g34"
     transform="translate(-2.0339046e-8,169.00847)"
     style="opacity:0.3">
    <path
       d="m 402.42,591.6 c 4.401,6.8 10.539,12.3 17.78,15.93 0.367,0.153 0.767,0.21 1.162,0.166 0.396,-0.043 0.773,-0.187 1.098,-0.416 0.45,-0.3 0.93,-1.06 0.23,-1.41 -7.073,-3.548 -13.065,-8.928 -17.35,-15.58 -0.66,-1 -3.72,0.08 -2.92,1.31 z"
       id="path32"
       inkscape:connector-curvature="0"
       style="opacity:0.3;fill:#1f0744" />
  </g>
  <g
     id="g38"
     transform="translate(-2.0339046e-8,169.00847)"
     style="opacity:0.3">
    <path
       d="m 344.62,610.29 c 9.671,-3.989 18.227,-10.27 24.93,-18.3 0.49,-0.59 -0.41,-0.85 -0.84,-0.87 -0.389,-0.017 -0.777,0.051 -1.137,0.198 -0.361,0.146 -0.686,0.369 -0.953,0.651 -6.243,7.497 -14.21,13.369 -23.22,17.111 -0.42,0.17 -1.29,0.67 -0.86,1.21 0.43,0.54 1.63,0.19 2.08,0 z"
       id="path36"
       inkscape:connector-curvature="0"
       style="opacity:0.3;fill:#1f0744" />
  </g>
  <g
     id="g42"
     transform="translate(-2.0339046e-8,169.00847)"
     style="opacity:0.3">
    <path
       d="m 382.68,630.14 8.33,-1.76 c 0.416,-0.073 0.82,-0.204 1.2,-0.39 0.2,-0.11 0.56,-0.32 0.63,-0.57 0.19,-0.61 -1,-0.53 -1.31,-0.47 l -8.33,1.76 c -0.421,0.069 -0.829,0.2 -1.21,0.39 -0.2,0.11 -0.55,0.32 -0.63,0.57 -0.18,0.61 1.05,0.53 1.32,0.47 z"
       id="path40"
       inkscape:connector-curvature="0"
       style="opacity:0.3;fill:#1f0744" />
  </g>
  <g
     id="g46"
     transform="translate(-2.0339046e-8,169.00847)"
     style="opacity:0.3">
    <path
       d="m 367,627.42 c 3.912,0.286 7.75,1.215 11.36,2.75 0.374,0.114 0.767,0.145 1.154,0.092 0.387,-0.054 0.758,-0.191 1.086,-0.402 0.39,-0.24 1,-0.9 0.29,-1.19 -4.02,-1.688 -8.29,-2.701 -12.64,-3 -0.391,-0.028 -0.784,0.035 -1.148,0.182 -0.364,0.147 -0.69,0.376 -0.952,0.668 -0.43,0.64 0.38,0.85 0.85,0.89 z"
       id="path44"
       inkscape:connector-curvature="0"
       style="opacity:0.3;fill:#1f0744" />
  </g>
  <g
     id="g50"
     transform="translate(-2.0339046e-8,169.00847)"
     style="opacity:0.3">
    <path
       d="m 408,735.68 c -0.39,0 0.22,0 0.33,0 l 0.63,0.09 c 0.44,0.07 0.87,0.17 1.3,0.27 h 0.13 l 0.3,0.06 1,0.23 c 0.54,0.11 1.08,0.22 1.62,0.31 2.838,0.449 5.74,0.251 8.49,-0.58 0.62,-0.19 1.5,-0.74 1.3,-1.52 -0.2,-0.78 -1.27,-0.84 -1.88,-0.66 -2.371,0.712 -4.88,0.836 -7.31,0.36 -1.835,-0.481 -3.709,-0.799 -5.6,-0.95 -0.69,0 -1.67,0.54 -1.75,1.29 -0.08,0.75 0.85,1 1.47,1 z"
       id="path48"
       inkscape:connector-curvature="0"
       style="opacity:0.3;fill:#1f0744" />
  </g>
  <path
     d="m 356,862.00847 c 0.667,-1.854 1.334,-3.71 2,-5.57 0.372,-0.79 0.842,-1.529 1.4,-2.2 0.192,-0.179 0.313,-0.422 0.338,-0.684 0.026,-0.261 -0.044,-0.523 -0.197,-0.736 -0.153,-0.214 -0.379,-0.364 -0.635,-0.423 -0.256,-0.059 -0.525,-0.022 -0.756,0.103 -0.86,0 -2,0.42 -2.18,1 -1.69,4.92 -3.39,9.84 -5.41,14.64 -1.145,2.801 -2.46,5.53 -3.94,8.17 -1.05,1.83 -2.27,4 -4,5.26 -1.73,1.26 1,1.7 2,1 3.71,-2.73 5.94,-7.36 7.8,-11.63 -0.11,1.41 -0.19,2.93 -0.23,4.55 -0.41,17.09 1.62,58.38 1.64,58.8 l 2.18,46.39997 -17.1,0.08 c -0.272,0.026 -0.525,0.152 -0.709,0.355 -0.184,0.202 -0.286,0.466 -0.286,0.74 0,0.273 0.102,0.537 0.286,0.74 0.184,0.202 0.437,0.329 0.709,0.355 l 19.38,-0.09 -2.29,-48.66997 c 0,-0.41 -2,-41.63 -1.64,-58.64 0.037,-4.564 0.587,-9.109 1.64,-13.55 z"
     id="path52"
     inkscape:connector-curvature="0"
     style="opacity:0.3;fill:#1f0744" />
  <g
     id="g56"
     transform="translate(-2.0339046e-8,169.00847)"
     style="opacity:0.3">
    <path
       d="m 405.19,812.93 -8.12,-81.45 c -0.014,-0.143 -10e-4,-0.287 0.041,-0.424 0.041,-0.137 0.109,-0.265 0.199,-0.376 0.091,-0.111 0.202,-0.203 0.328,-0.27 0.126,-0.068 0.265,-0.111 0.407,-0.125 0.143,-0.015 0.287,-10e-4 0.424,0.04 0.137,0.042 0.265,0.109 0.376,0.2 0.111,0.09 0.203,0.202 0.27,0.328 0.068,0.126 0.111,0.264 0.125,0.407 l 7.93,79.44 16.83,-0.36 c 0.272,0.026 0.525,0.153 0.709,0.355 0.184,0.202 0.286,0.466 0.286,0.74 0,0.273 -0.102,0.537 -0.286,0.74 -0.184,0.202 -0.437,0.329 -0.709,0.355 z"
       id="path54"
       inkscape:connector-curvature="0"
       style="opacity:0.3;fill:#1f0744" />
  </g>
  <path
     d="m 394.29,552.74847 c -8.64,-1.41 -17.32,8.19 -21.26,22.77 -0.722,-0.137 -1.46,-0.164 -2.19,-0.08 -2.19,0 -3.11,4.05 -3.11,8.86 0,4.11 1.3,7.54 3,8.46 0,1.3 0.12,2.59 0.25,3.83 l -1.1,12.09 c -0.071,0.956 -0.326,1.89 -0.75,2.75 -0.642,1.186 -0.985,2.511 -1,3.86 0,5.57 8.12,12.29 15.09,12.29 2.19,0.094 4.384,0.007 6.56,-0.26 1.081,-0.208 2.093,-0.683 2.943,-1.382 0.851,-0.698 1.513,-1.598 1.927,-2.618 l 0.51,-1.19 c 0.138,-0.325 0.252,-0.659 0.34,-1 0.346,-1.582 0.474,-3.204 0.38,-4.82 v -3.59 c 5.24,-5.2 9.5,-14.14 11.15,-24.72 2.8,-17.85 -2.91,-33.64 -12.74,-35.25 z"
     id="path58"
     inkscape:connector-curvature="0"
     style="fill:#fcdeab" />
  <path
     d="m 420.55,559.64847 c -3.24,-0.61 -4.42,-0.32 -5.53,0.44 0,-2.91 -0.67,-3.53 -1.68,-3.94 -0.751,-0.29 -1.418,-0.761 -1.941,-1.372 -0.524,-0.611 -0.888,-1.342 -1.059,-2.128 -0.48,-2.22 -2.11,-2.6 -2.6,-4.17 -2.44,-7.85 -6.48,-10.52 -16.27,-10.52 -7.55,0 -15.23,4.86 -17.79,9.44 -7.53,0.48 -13.77,8.36 -13.77,19.74 0,11.68 9.45,23.29 9.37,24.16 0,0 -4.54,-18.72 4.24,-15.22 0.266,0.146 0.471,0.383 0.577,0.667 0.107,0.285 0.108,0.598 0.003,0.883 0,0 -5.45,23.55 4.17,33.87 0.908,1.62 2.234,2.967 3.84,3.901 1.606,0.934 3.433,1.421 5.29,1.409 5.57,0 8.79,-3.63 11.83,-8.13 1.84,-2.82 3.36,-5.68 3.36,-7.81 0,-3.87 -5.93,-6 -12.1,-6 -1.942,-0.043 -3.871,0.321 -5.664,1.068 -1.793,0.748 -3.41,1.862 -4.746,3.272 -0.312,0.389 -0.683,0.726 -1.1,1 0,0 -2.84,0.84 -3.17,-2.72 -0.53,-5.77 1.14,-20.26 3,-26.1 0.212,-0.644 0.636,-1.197 1.202,-1.57 0.567,-0.372 1.243,-0.541 1.918,-0.48 1.74,0.23 3.89,1.79 6.31,5.44 3.72,5.14 8.93,12.22 16.57,12.22 0,0 8.22,0.81 9.85,-5.64 0.36,-1.4 0.63,-4.4 0.65,-4.45 0.119,-0.374 0.316,-0.719 0.58,-1.01 0.263,-0.29 0.586,-0.521 0.947,-0.676 0.36,-0.154 0.75,-0.23 1.142,-0.22 0.393,0.01 0.778,0.104 1.131,0.276 3.51,1.18 8.13,-2.1 8.13,-6 0,-3.9 -2.14,-8.76 -6.69,-9.63 z"
     id="path60"
     inkscape:connector-curvature="0"
     style="fill:#1f0744" />
  <path
     d="m 370.16,610.76847 c 0,0 -27,8.08 -38.61,13.23 -5.86,2.6 -16.79,22.69 -11.91,58.32 0,0 13,4 22.77,-6.3 l 0.5,-16 c 0,0 -3.25,72.56 1.79,97.78 0,0 61.33,5 81.34,-3.25 l -0.67,-74.56 0.51,-12.16 0.16,13.51 c 0,0 7,5.69 24.08,-0.65 0,0 -6.64,-39.29 -16.24,-54.75 -5.11,-8.23 -8.15,-9.33 -11.39,-10.9 -5.2,-2.52 -28.47,-3.63 -28.47,-3.63 0,0 7.43,16.59 -8.68,15.62 -21.04,-1.95 -15.18,-16.26 -15.18,-16.26 z"
     id="path62"
     inkscape:connector-curvature="0"
     style="fill:#1f0744" />
  <path
     d="m 345.66,672.53847 2,-14.71 c 0,0 2,10.07 1.54,10.78 -0.2,0.4 -3.54,3.93 -3.54,3.93 z"
     id="path64"
     inkscape:connector-curvature="0"
     style="opacity:0.3;fill:#f2eafc" />
  <path
     d="m 422.72,657.15847 -0.61,6.57 4.31,5.96 z"
     id="path66"
     inkscape:connector-curvature="0"
     style="opacity:0.3;fill:#f2eafc" />
  <g
     id="g70"
     transform="translate(-2.0339046e-8,169.00847)"
     style="opacity:0.3">
    <path
       d="m 342.87,553 c 2.58,0.19 5,1.29 7.46,1.94 2.52,0.661 5.114,0.997 7.72,1 0.79,0.03 1.571,-0.179 2.24,-0.6 0.46,-0.32 0.47,-0.72 -0.19,-0.72 -2.61,-0.003 -5.207,-0.359 -7.72,-1.06 -2.48,-0.7 -4.86,-1.68 -7.47,-1.86 -0.792,-0.044 -1.577,0.166 -2.24,0.6 -0.49,0.34 -0.44,0.68 0.2,0.72 z"
       id="path68"
       inkscape:connector-curvature="0"
       style="opacity:0.3;fill:#f2eafc" />
  </g>
  <g
     id="g74"
     transform="translate(-2.0339046e-8,169.00847)"
     style="opacity:0.3">
    <path
       d="m 423.44,571.76 c -2.6,1.66 -5.91,2.35 -8.87,3 -3.109,0.728 -6.263,1.252 -9.44,1.57 -0.62,0.06 -1.73,0.21 -2.12,0.78 -0.39,0.57 0.33,0.64 0.77,0.6 3.824,-0.395 7.619,-1.036 11.36,-1.92 3.65,-0.85 7.55,-1.84 10.74,-3.89 0.54,-0.34 0.36,-0.7 -0.2,-0.77 -0.792,-0.05 -1.579,0.16 -2.24,0.6 z"
       id="path72"
       inkscape:connector-curvature="0"
       style="opacity:0.3;fill:#f2eafc" />
  </g>
  <g
     id="g78"
     transform="translate(-2.0339046e-8,169.00847)"
     style="opacity:0.3">
    <path
       d="m 343.66,584.439 c 5.571,1.128 11.215,1.853 16.89,2.17 4.81,0.25 9.62,0.221 14.44,0.291 8.62,0.14 17.18,0.149 25.78,-0.541 6.904,-0.557 13.776,-1.461 20.59,-2.709 0.38,-0.07 1.17,-0.27 1.19,-0.76 0.02,-0.49 -0.56,-0.601 -0.93,-0.531 -19.19,3.51 -38.61,3.76 -58,3 -6.266,-0.232 -12.503,-0.967 -18.65,-2.2 -0.262,-0.057 -0.535,-0.05 -0.794,0.019 -0.259,0.07 -0.498,0.201 -0.696,0.381 -0.26,0.33 -0.28,0.741 0.22,0.841 z"
       id="path76"
       inkscape:connector-curvature="0"
       style="opacity:0.3;fill:#f2eafc" />
  </g>
  <path
     d="m 369,646.83847 c 0,0 3,-11.49 7.8,-13.56 3.8,-1.62 13.89,-3 17.14,-3 3.25,0 7.38,0.75 4,2.27 l -5.65,2.59 c -2.75,1.27 -5.15,3.07 -5,6.09 0.216,2.457 0.18,4.93 -0.11,7.38 -0.65,3.25 -2.06,5.53 -10.09,6.07 -2.79,0.19 -21.69,51.84 -22.13,52.71 -1.32,2.65 -10.73,19.2 -22.77,11.39 -12.04,-7.81 -11.69,-36.77 -11.69,-36.77 l 4.23,0.33 c 4.951,-0.016 9.812,-1.326 14.1,-3.8 2.71,-1.68 4.84,-3.41 5.43,-4.39 z"
     id="path80"
     inkscape:connector-curvature="0"
     style="fill:#fcdeab" />
  <path
     d="m 406,624.70747 18.82,-1.57 c 0.505,-0.041 1.013,0.042 1.479,0.242 0.465,0.199 0.875,0.51 1.194,0.904 0.318,0.395 0.535,0.861 0.632,1.358 0.098,0.498 0.072,1.011 -0.075,1.496 l -10.05,33.74 c -0.183,0.606 -0.546,1.142 -1.041,1.537 -0.495,0.395 -1.098,0.629 -1.729,0.673 l -20.2,1.34 c -0.511,0.033 -1.021,-0.061 -1.487,-0.273 -0.465,-0.212 -0.871,-0.536 -1.182,-0.942 -0.31,-0.407 -0.516,-0.883 -0.598,-1.388 -0.082,-0.505 -0.039,-1.023 0.127,-1.507 l 11.49,-33.52 c 0.19,-0.562 0.539,-1.059 1.003,-1.429 0.465,-0.371 1.026,-0.6 1.617,-0.661 z"
     id="path82"
     inkscape:connector-curvature="0"
     style="fill:#d2cafc" />
  <path
     d="m 448.69,686.90847 -0.62,-8.27 c -4.157,1.686 -8.577,2.63 -13.06,2.79 -6.36,-8.23 -17.19,-22.46 -17.26,-24.22 -0.11,-2.4 4.66,-5.75 5.42,-10.74 0.493,-4.248 0.71,-8.524 0.65,-12.8 0,0 -10,9.44 -16.16,5.21 -6.16,-4.23 -8.89,-3.69 -8.89,-3.69 0,0 -2.93,-0.22 -1,5.2 1.93,5.42 1.73,6.4 2.82,12.37 1.09,5.97 4.66,7.48 4.66,7.48 l 16.49,52.82 c 0,0 4.66,7.38 8.78,7.49 4.12,0.11 10.31,-0.22 13.35,-3.47 3.04,-3.25 4.33,-8.57 4.88,-15 0.245,-5.055 0.225,-10.118 -0.06,-15.17 z"
     id="path84"
     inkscape:connector-curvature="0"
     style="fill:#fcdeab" />
  <path
     d="m 685.51,702.22847 31.89,93.19 h 144.39 l -1.07,-4.8 -58.38,-1.81 -26.9,-86.63 z"
     id="path86"
     inkscape:connector-curvature="0"
     style="fill:#d2cafc" />
  <path
     d="m 751.35,752.09847 c 0.62,3.47 -1.28,6.71 -4.24,7.24 -2.96,0.53 -5.87,-1.86 -6.49,-5.34 -0.62,-3.48 1.29,-6.71 4.25,-7.23 2.96,-0.52 5.86,1.86 6.48,5.33 z"
     id="path88"
     inkscape:connector-curvature="0"
     style="fill:#ffffff" />
  <path
     d="m 846.3,849.00847 c -8.81,-5.29 -23.6,1.51 -23.59,9.08 0,22.65 20.7,129.37997 21.78,136.12997 1.08,6.74996 12.64,8.52996 13.31,0 1.07,-13.54 3.06,-60.39997 1.07,-82.08997 -0.82,-8.95 -1.71,-17.48 -2.58,-25.09 10.853,19.587 27.627,47.63 50.32,84.12997 l 12.32,-5.63 c -9.673,-31.88697 -17.607,-54.39697 -23.8,-67.52997 -10.61,-22.49 -20.55,-41.75 -24.73,-48.53 -6.59,-10.62 -18.04,-6.9 -24.1,-0.47 z"
     id="path90"
     inkscape:connector-curvature="0"
     style="clip-rule:evenodd;fill:#c08356;fill-rule:evenodd" />
  <path
     d="M 918.05,947.87844 875.76,847.67847 c -10.14,-16.29 -38.54,3.32 -35.09,12.77 7.85,21.47 47.74,90.94997 50.08,97.33997 z"
     id="path92"
     inkscape:connector-curvature="0"
     style="clip-rule:evenodd;fill:#411cb5;fill-rule:evenodd" />
  <path
     d="m 929.91,979.69844 -11.91,-24.69 -37.44,48.50996"
     id="path94"
     inkscape:connector-curvature="0"
     style="clip-rule:evenodd;fill:#1f0744;fill-rule:evenodd" />
  <path
     d="m 858.25,1014.3284 0.09,-27.39996 -54.9,27.21996"
     id="path96"
     inkscape:connector-curvature="0"
     style="clip-rule:evenodd;fill:#1f0744;fill-rule:evenodd" />
  <path
     d="m 819.75,854.05847 c 0,29.6 14,98.62997 14.06,105.14997 h 30.24 c -3.47,-61.14997 -6,-92.72997 -4.71,-93.38997 1.93,-1 79.16,7.71 102.31,7.71 33.40001,0 47.22,-21.06 48.34,-60.07 h -66.16 c -13.47,1.44 -83.73,15.61 -109.82,20.48 -11.18,2.07 -14.26,11.97 -14.26,20.12 z"
     id="path98"
     inkscape:connector-curvature="0"
     style="clip-rule:evenodd;fill:#411cb5;fill-rule:evenodd" />
  <path
     d="m 890.18,865.34847 c -19.88,-0.9 -29.81,-3.581 -34.64,-5.671 -1.371,-0.496 -2.636,-1.246 -3.73,-2.209 -0.182,-0.223 -0.443,-0.366 -0.729,-0.399 -0.285,-0.034 -0.572,0.045 -0.801,0.219 -0.114,0.087 -0.21,0.196 -0.281,0.32 -0.072,0.125 -0.117,0.262 -0.135,0.405 -0.018,0.142 -0.007,0.287 0.032,0.425 0.039,0.138 0.105,0.267 0.194,0.379 0.16,0.21 1.1,1.261 4,2.591 -0.025,0.145 -0.025,0.294 0,0.44 0.08,0.48 6.56,48.739 0.9,60.199 -0.135,0.255 -0.167,0.552 -0.089,0.83 0.078,0.277 0.261,0.514 0.509,0.661 0.166,0.09 0.351,0.138 0.54,0.139 0.201,0.007 0.399,-0.041 0.575,-0.138 0.176,-0.096 0.323,-0.239 0.425,-0.412 0.665,-1.223 1.169,-2.527 1.5,-3.88 l 2.29,29.86997 c -0.136,-0.025 -0.275,-0.025 -0.41,0 -16.13,2.27 -26.12,-0.11 -26.22,-0.13 -0.284,-0.07 -0.584,-0.024 -0.834,0.127 -0.251,0.15 -0.431,0.395 -0.501,0.678 -0.07,0.284 -0.025,0.584 0.126,0.835 0.151,0.25 0.395,0.43 0.679,0.5 4.306,0.88 8.696,1.279 13.09,1.19 4.684,-0.01 9.362,-0.343 14,-1 0.092,-0.023 0.182,-0.054 0.27,-0.09 l 0.41,5.44 c 0.025,0.275 0.152,0.529 0.356,0.714 0.203,0.186 0.469,0.288 0.744,0.286 h 0.08 c 0.287,-0.025 0.552,-0.162 0.739,-0.381 0.187,-0.218 0.28,-0.501 0.261,-0.789 0,0 -4,-89.28997 -7.08,-94.10997 5.49,2 15.55,4.35 33.73,5.17 h 0.05 c 0.275,0.002 0.541,-0.1 0.744,-0.286 0.204,-0.185 0.331,-0.439 0.356,-0.714 0.02,-0.158 0.004,-0.319 -0.046,-0.47 -0.05,-0.152 -0.133,-0.291 -0.243,-0.406 -0.11,-0.116 -0.244,-0.206 -0.393,-0.264 -0.149,-0.057 -0.309,-0.081 -0.468,-0.069 z"
     id="path100"
     inkscape:connector-curvature="0"
     style="opacity:0.3;fill:#1f0744" />
  <g
     id="g104"
     transform="translate(-2.0339046e-8,169.00847)"
     style="opacity:0.3">
    <path
       d="m 885.76,775.52 c -0.277,-0.005 -0.543,-0.114 -0.744,-0.306 -0.2,-0.191 -0.321,-0.452 -0.337,-0.729 -0.017,-0.277 0.072,-0.55 0.249,-0.764 0.176,-0.215 0.427,-0.354 0.702,-0.391 0.1,0 10.27,-1.3 24.54,-9.08 0.128,-0.094 0.275,-0.159 0.43,-0.191 0.156,-0.032 0.317,-0.03 0.471,0.007 0.155,0.036 0.3,0.105 0.425,0.203 0.126,0.097 0.228,0.221 0.301,0.362 0.073,0.141 0.115,0.296 0.122,0.454 0.008,0.159 -0.019,0.317 -0.079,0.464 -0.059,0.148 -0.15,0.28 -0.266,0.389 -0.116,0.109 -0.253,0.191 -0.404,0.242 -14.68,8 -24.9,9.28 -25.33,9.33 z"
       id="path102"
       inkscape:connector-curvature="0"
       style="opacity:0.3;fill:#1f0744" />
  </g>
  <path
     d="m 864.92,791.06847 -32.7,-1.89 c -12.133,5.333 -18.283,7 -18.45,5 -0.25,-2.91 3.69,-3.47 3.84,-5.46 0.15,-1.99 -5.09,-4.32 -10.16,-6.31 -5.07,-1.99 -2.58,-3.48 -0.87,-4 7.478,-0.506 14.991,0.009 22.33,1.53 l 37.35,-6.86 z"
     id="path106"
     inkscape:connector-curvature="0"
     style="clip-rule:evenodd;fill:#c08356;fill-rule:evenodd" />
  <path
     d="m 904.28,760.16847 c 0,0 -14.08,-1.32 -18.3,-8.73 -4.6,-8.07 -8.73,-15.39 -8.73,-15.39 0,0 -5.3,-9.24 -6.75,-8.76 -0.31,0.098 -0.595,0.262 -0.834,0.481 -0.24,0.22 -0.429,0.489 -0.554,0.789 -0.125,0.3 -0.182,0.624 -0.169,0.948 0.014,0.325 0.098,0.643 0.247,0.932 0.54,1.25 2.61,8.7 2.61,8.7 -1.486,0.063 -2.948,0.402 -4.31,1 -1.83,0.8 -6.27,9.12 -6.57,10.09 -0.282,0.849 -0.441,1.735 -0.47,2.63 0.162,0.568 0.469,1.085 0.89,1.5 0.369,0.368 0.827,0.633 1.33,0.77 0.053,0.021 0.1,0.052 0.141,0.091 0.04,0.04 0.073,0.087 0.095,0.139 0.022,0.052 0.034,0.108 0.035,0.164 10e-4,0.057 -0.01,0.113 -0.031,0.166 -0.16,0.32 -0.66,0.81 -2.06,1.46 -2.52,1.19 -5.47,2.37 -5.47,2.37 0,0 -1.7,0.74 -0.82,2.19 0,0 0.69,1.21 5.62,0 3.613,-1.049 7.37,-1.519 11.13,-1.39 4.24,0.08 6.72,0.83 8.48,2 1.76,1.17 15.57,9.11 15.57,9.11 z"
     id="path108"
     inkscape:connector-curvature="0"
     style="clip-rule:evenodd;fill:#c08356;fill-rule:evenodd" />
  <path
     d="m 983,712.00847 -27.47,3.78 0.13,-33.55 c -6.8,5.48 -13.52,6.09 -17.06,5.68 -8.88,-1 -14.24,-29.73 -9.31,-43 4.93,-13.27 38.29,-23.35 43.38,0.91 1.76,8.42 -0.76,16.5 -5.19,23.41 z"
     id="path110"
     inkscape:connector-curvature="0"
     style="clip-rule:evenodd;fill:#c08356;fill-rule:evenodd" />
  <path
     d="m 963,660.00847 c -0.123,-0.903 -0.423,-1.772 -0.882,-2.559 -0.459,-0.786 -1.069,-1.474 -1.794,-2.025 -0.725,-0.551 -1.552,-0.953 -2.433,-1.184 -0.881,-0.231 -1.799,-0.286 -2.701,-0.162 -0.763,0.15 -1.484,0.464 -2.115,0.919 -0.63,0.456 -1.153,1.043 -1.535,1.721 -0.697,-2.05 -1.206,-4.158 -1.52,-6.3 -0.3,-2.067 -0.334,-4.165 -0.1,-6.24 -4.372,0.355 -8.77,0.214 -13.11,-0.42 -6.07,0.51 -8.6,-3.09 -9.44,-9.2 -0.87,-6.32 0.64,-11.46 7,-12.32 6.36,-0.86 12.09,2.09 13,8.4 1.2,-0.18 2.43,-0.34 3.68,-0.47 5.73,-0.692 11.532,-0.517 17.21,0.52 0.824,0.138 1.631,0.359 2.41,0.66 1.087,0.332 2.104,0.861 3,1.56 3.07,2.172 5.548,5.077 7.21,8.45 6.38,-4.44 8.74,-13.18 24.92,-15.4 23.79,-3.27 27,37.29 10,39.63 -12.52,1.72 -21.55999,-10.07 -31.91,-15.26 0.08,0.44 0.15,0.89 0.21,1.34 1.77,12.85 -3,25.68 -11.89,26.91 -4.71,0.65 -10.09,-3.63 -14.4,-9.7 3.66,-0.8 5.8,-4.41 5.19,-8.87 z"
     id="path112"
     inkscape:connector-curvature="0"
     style="clip-rule:evenodd;fill:#ed3b3f;fill-rule:evenodd" />
  <path
     d="m 838.16,776.00847 c 0,0 60.21,-6.8 63,-8.39 2.79,-1.59 13,-28.15 16,-34.63 3,-6.48 13.3,-22.2 23.37,-26.19 7.85,-3.11 10.14,-3.94 10.14,-3.94 0,0 5.76,6.3 5.91,7.89 0.56,5.91 -2.81,15.85 -6.2,25.62 -7.6,22 -34.91,62.22 -34.91,62.22 0,0 -38.29,3.38 -76.3,-7.32 z"
     id="path114"
     inkscape:connector-curvature="0"
     style="fill:#14b0bc" />
  <path
     d="m 953.18,702.16847 c 0,0 6.38,12.57 26.09,-3.57 0,0 21.74,5.75 25.72,15.16 9.39,22.18 10.5,59.45 8.81,76.07 -1.69,16.62 -3.94,36.6 -3.94,36.6 -10.67799,-0.357 -21.36,0.587 -31.81,2.81 -16.62,3.67 -31.81,-6.75 -53.78,-13 3.944,-14.466 7.139,-29.125 9.57,-43.92 4.51,-26.48 -6.19,-51.25 -6.19,-51.25 0,0 5.35,-15.99 25.53,-18.9 z"
     id="path116"
     inkscape:connector-curvature="0"
     style="fill:#14b0bc" />
  <path
     d="m 891.61,756.00847 c 0,0 25.75,3.55 44.19,8.48 8.7,2.33 15.77,5 17.75,7.66 2.22,3 8.47,-32.77 8.47,-32.77 0,0 5.88,-29.28 17.67,-33.79 9.19,-3.52 19.47001,4.24 19.47001,4.24 0,0 5.99999,8.41 5.60999,22.8 -1.1,43.65 -40.52,74.62 -40.52,74.62 0,0 -23.84,8.07 -80.15,-40.73 z"
     id="path118"
     inkscape:connector-curvature="0"
     style="fill:#14b0bc" />
  <g
     id="g122"
     transform="translate(-2.0339046e-8,169.00847)"
     style="opacity:0.3">
    <path
       d="m 962.42,641.07 c -9.38,0 -32.7,-4.64 -73.74,-40.2 -0.104,-0.085 -0.189,-0.189 -0.252,-0.308 -0.063,-0.118 -0.101,-0.248 -0.113,-0.381 -0.011,-0.134 0.004,-0.268 0.046,-0.395 0.041,-0.128 0.108,-0.246 0.195,-0.347 0.088,-0.101 0.195,-0.183 0.316,-0.242 0.12,-0.059 0.251,-0.094 0.384,-0.101 0.134,-0.007 0.268,0.012 0.394,0.058 0.126,0.045 0.242,0.115 0.34,0.206 51.23,44.39 74.17,37.75 76.23,37.22 2.59,-2.1 38,-29.33 39,-69.3 0,-0.265 0.11,-0.52 0.29,-0.707 0.19,-0.188 0.44,-0.293 0.71,-0.293 0.27,0 0.52,0.105 0.71,0.293 0.18,0.187 0.29,0.442 0.29,0.707 0.7,44.76 -39.53,72.87 -39.92,73.18 l 0.16,-0.06 -0.16,0.06 c -1.586,0.449 -3.232,0.655 -4.88,0.61 z"
       id="path120"
       inkscape:connector-curvature="0"
       style="opacity:0.3;fill:#1f0744" />
  </g>
  <path
     d="m 941,740.64847 c 0,0 -1.61,20.62 -5.93,26.44 l 4.43,1 z"
     id="path124"
     inkscape:connector-curvature="0"
     style="opacity:0.3;fill:#1f0744" />
  <path
     d="m 954.94,772.91847 c -0.35,-0.252 -0.643,-0.576 -0.857,-0.95 -0.214,-0.374 -0.344,-0.791 -0.383,-1.22 -0.269,-1.321 -0.456,-2.657 -0.56,-4 -0.15,-1.66 -0.3,-3.65 -0.29,-6.1 -0.002,-1.337 0.078,-2.673 0.24,-4 0.185,-1.43 0.449,-2.849 0.79,-4.25 0.66,-2.75 1.39,-5.06 1.94,-7 0.27,-1 0.5,-1.87 0.71,-2.79 0.21,-0.92 0.41,-2 0.68,-3 0.375,-1.795 1.237,-3.452 2.49,-4.79 1.06,-1 2,-1.06 2.6,-0.66 0.595,0.573 1.006,1.312 1.18,2.12 0.31,0.92 0.67,2 1.09,3.57 0.255,0.964 0.455,1.943 0.6,2.93 0.163,1.306 0.213,2.625 0.15,3.94 -0.182,2.728 -0.617,5.433 -1.3,8.08 -0.64,2.62 -1.12,4.64 -1.64,7 -0.456,2.2 -1.126,4.35 -2,6.42 -0.649,1.577 -1.643,2.988 -2.91,4.13 -1,0.72 -1.91,0.9 -2.53,0.57 z"
     id="path126"
     inkscape:connector-curvature="0"
     style="fill:#14b0bc" />
  <path
     d="m 970.67,775.73847 c -1.24,-0.38 -2.49,-0.73 -3.73,-1.09 0.79,-8.51 2.89,-21.43 4.56,-29.8 -0.92,2.085 -1.718,4.222 -2.39,6.4 -1.63,8.13 -3.23,14.59 -4,22.85 -6.46,-1.84 -12.98,-3.457 -19.56,-4.85 -0.61,-0.12 -7.12,-1.43 -6,-1.2 7,1.49 18.85,5.49 25.75,7.48 h 0.14 c 1.38,0.4 2.76,0.8 4.13,1.22 0.53,0.26 2.18,-0.68 1.1,-1.01 z"
     id="path128"
     inkscape:connector-curvature="0"
     style="opacity:0.3;fill:#1f0744" />
  <g
     id="g132"
     transform="translate(-2.0339046e-8,169.00847)"
     style="opacity:0.3">
    <path
       d="m 949.11,537.83 c 3.8,3.4 9.77,4.06 14.67,3.94 2.709,-0.11 5.363,-0.792 7.79,-2 2.9,-1.34 5.76,-2.76 8.64,-4.15 1.2,-0.58 0.1,-1.26 -0.78,-0.84 l -7.24,3.48 c -2.324,1.312 -4.902,2.113 -7.56,2.35 -4.53,0.16 -10.22,-0.43 -13.73,-3.57 -0.53,-0.47 -2.34,0.28 -1.79,0.77 z"
       id="path130"
       inkscape:connector-curvature="0"
       style="opacity:0.3;fill:#1f0744" />
  </g>
  <g
     id="g136"
     transform="translate(-2.0339046e-8,169.00847)"
     style="opacity:0.3">
    <path
       d="m 986.22,535.06 c -0.31,-0.07 -0.631,-0.07 -0.94,0 -0.412,0.061 -0.808,0.207 -1.16,0.43 -0.226,0.132 -0.421,0.313 -0.569,0.529 -0.149,0.216 -0.248,0.462 -0.291,0.721 -0.014,0.05 -0.015,0.103 -0.002,0.154 0.012,0.051 0.037,0.097 0.072,0.136 0.086,0.082 0.193,0.137 0.31,0.16 0.322,0.12 0.658,0.2 1,0.24 0.554,0.043 1.108,-0.082 1.59,-0.36 0.147,-0.08 0.282,-0.181 0.4,-0.3 0.112,-0.108 0.206,-0.233 0.28,-0.37 0.069,-0.124 0.111,-0.261 0.123,-0.403 0.012,-0.141 -0.006,-0.283 -0.053,-0.417 -0.01,-0.038 -0.027,-0.074 -0.051,-0.105 -0.024,-0.031 -0.055,-0.057 -0.089,-0.075 -0.069,-0.065 -0.156,-0.107 -0.25,-0.12 -0.236,-0.065 -0.485,-0.065 -0.72,0 -0.242,0.05 -0.464,0.168 -0.64,0.34 l -0.12,0.14 c -0.034,0.043 -0.057,0.094 -0.067,0.148 -0.01,0.054 -0.008,0.109 0.007,0.162 0.032,0.076 0.052,0.157 0.06,0.24 v -0.15 c 0.014,0.079 0.014,0.16 0,0.24 l 0.07,-0.16 c -0.032,0.071 -0.072,0.138 -0.12,0.2 l 0.12,-0.14 -0.14,0.13 0.17,-0.13 -0.14,0.09 0.22,-0.12 h -0.11 l 0.25,-0.09 h -0.14 0.26 0.09 -0.29 0.22 c -0.239,-0.043 -0.473,-0.107 -0.7,-0.19 l 0.38,0.45 c 0.008,-0.103 0.031,-0.204 0.07,-0.3 l -0.06,0.16 c 0.043,-0.099 0.097,-0.193 0.16,-0.28 l -0.12,0.15 c 0.061,-0.072 0.128,-0.139 0.2,-0.2 l -0.17,0.14 0.17,-0.11 -0.21,0.11 0.17,-0.07 -0.25,0.09 h 0.15 -0.26 0.08 -0.22 0.16 c 0.236,0.06 0.484,0.06 0.72,0 0.24,-0.054 0.461,-0.171 0.64,-0.34 0.11,-0.11 0.25,-0.28 0.19,-0.45 -0.037,-0.077 -0.092,-0.144 -0.16,-0.196 -0.067,-0.052 -0.146,-0.088 -0.23,-0.104 z"
       id="path134"
       inkscape:connector-curvature="0"
       style="opacity:0.3;fill:#1f0744" />
  </g>
  <g
     id="g140"
     transform="translate(-2.0339046e-8,169.00847)"
     style="opacity:0.3">
    <path
       d="m 991.39,536.47 c -0.25,0.006 -0.499,0.043 -0.74,0.11 -0.236,0.064 -0.464,0.155 -0.68,0.27 -0.273,0.143 -0.528,0.317 -0.76,0.52 -0.097,0.091 -0.181,0.196 -0.25,0.31 -0.077,0.112 -0.122,0.244 -0.13,0.38 -0.011,0.159 0.039,0.316 0.14,0.44 0.079,0.091 0.178,0.163 0.29,0.21 0.277,0.122 0.578,0.18 0.88,0.17 0.556,-0.011 1.098,-0.181 1.56,-0.49 0.418,-0.268 0.726,-0.675 0.87,-1.15 0.012,-0.082 -0.002,-0.165 -0.04,-0.239 -0.038,-0.073 -0.097,-0.133 -0.17,-0.171 -0.201,-0.101 -0.427,-0.139 -0.65,-0.11 -0.23,0.004 -0.454,0.073 -0.646,0.201 -0.191,0.128 -0.342,0.308 -0.434,0.519 v 0.09 l 0.06,-0.16 c -0.043,0.104 -0.1,0.201 -0.17,0.29 l 0.12,-0.15 c -0.065,0.084 -0.139,0.161 -0.22,0.23 l 0.17,-0.15 c -0.06,0.055 -0.127,0.102 -0.2,0.14 l 0.22,-0.12 -0.2,0.09 0.25,-0.09 -0.21,0.06 h 0.26 -0.2 0.25 c -0.063,0.01 -0.127,0.01 -0.19,0 h 0.22 -0.17 l 0.18,0.07 -0.12,-0.07 0.13,0.11 -0.06,-0.07 0.08,0.14 c -0.01,-0.033 -0.01,-0.068 0,-0.1 v 0.16 c -0.01,-0.043 -0.01,-0.087 0,-0.13 l -0.06,0.16 c 0.017,-0.047 0.041,-0.09 0.07,-0.13 l -0.12,0.16 0.17,-0.17 -0.17,0.14 0.29,-0.2 -0.22,0.12 0.32,-0.14 -0.25,0.09 0.28,-0.08 -0.26,0.05 c 0.107,-0.01 0.214,-0.01 0.32,0 0.261,-0.026 0.512,-0.115 0.73,-0.26 0.087,-0.048 0.164,-0.114 0.224,-0.193 0.06,-0.079 0.103,-0.17 0.126,-0.267 0.012,-0.082 -0.002,-0.165 -0.04,-0.239 -0.038,-0.073 -0.097,-0.133 -0.17,-0.171 -0.203,-0.093 -0.428,-0.128 -0.65,-0.1 z"
       id="path138"
       inkscape:connector-curvature="0"
       style="opacity:0.3;fill:#1f0744" />
  </g>
  <g
     id="g144"
     transform="translate(-2.0339046e-8,169.00847)"
     style="opacity:0.3">
    <path
       d="m 996.41,538.2 c -0.517,0.051 -1.017,0.21 -1.47,0.464 -0.453,0.255 -0.848,0.601 -1.16,1.016 -0.08,0.088 -0.132,0.197 -0.152,0.314 -0.019,0.117 -0.005,0.237 0.042,0.346 0.061,0.108 0.147,0.201 0.252,0.269 0.105,0.068 0.224,0.109 0.348,0.121 0.294,0.055 0.596,0.055 0.89,0 0.383,-0.042 0.755,-0.151 1.1,-0.32 0.596,-0.28 1.075,-0.762 1.35,-1.36 0.049,-0.087 0.075,-0.185 0.075,-0.285 0,-0.1 -0.026,-0.198 -0.075,-0.285 -0.067,-0.085 -0.15,-0.155 -0.244,-0.206 -0.095,-0.052 -0.199,-0.084 -0.306,-0.094 -0.247,-0.039 -0.5,-10e-4 -0.725,0.108 -0.225,0.109 -0.412,0.284 -0.535,0.502 l -0.1,0.2 0.11,-0.18 c -0.073,0.123 -0.164,0.234 -0.27,0.33 l 0.17,-0.16 c -0.096,0.091 -0.2,0.175 -0.31,0.25 l 0.21,-0.13 c -0.116,0.068 -0.236,0.128 -0.36,0.18 l 0.25,-0.1 c -0.116,0.047 -0.237,0.08 -0.36,0.1 l 0.26,-0.05 c -0.113,0.009 -0.227,0.009 -0.34,0 h 0.25 -0.34 l 0.49,1 c 0.088,-0.124 0.185,-0.241 0.29,-0.35 l -0.17,0.17 c 0.134,-0.125 0.278,-0.239 0.43,-0.34 l -0.21,0.13 c 0.146,-0.091 0.3,-0.168 0.46,-0.23 l -0.25,0.1 c 0.153,-0.057 0.31,-0.101 0.47,-0.13 l -0.26,0.05 h 0.09 c 0.264,-0.019 0.517,-0.113 0.73,-0.27 0.177,-0.13 0.296,-0.324 0.33,-0.54 0.009,-0.099 -0.009,-0.198 -0.051,-0.288 -0.042,-0.089 -0.107,-0.166 -0.189,-0.222 -0.196,-0.135 -0.434,-0.195 -0.67,-0.17 z"
       id="path142"
       inkscape:connector-curvature="0"
       style="opacity:0.3;fill:#1f0744" />
  </g>
  <path
     d="m 957.08,672.97847 c 6.699,0 12.13,-6.223 12.13,-13.9 0,-7.677 -5.431,-13.9 -12.13,-13.9 -6.699,0 -12.13,6.223 -12.13,13.9 0,7.677 5.431,13.9 12.13,13.9 z"
     id="path146"
     inkscape:connector-curvature="0"
     style="fill:#d2cafc" />
  <path
     d="m 958.02,664.24847 c 2.811,0 5.09,-2.279 5.09,-5.09 0,-2.812 -2.279,-5.09 -5.09,-5.09 -2.811,0 -5.09,2.278 -5.09,5.09 0,2.811 2.279,5.09 5.09,5.09 z"
     stroke-miterlimit="10"
     id="path148"
     inkscape:connector-curvature="0"
     style="fill:#6950f6;stroke:#d2cafc;stroke-miterlimit:10" />
  <path
     d="m 948.3,629.51847 c 0,0 10.51,-3.94 9.76,23.19"
     stroke-miterlimit="10"
     id="path150"
     inkscape:connector-curvature="0"
     style="stroke:#d2cafc;stroke-width:3;stroke-linecap:round;stroke-miterlimit:10" />
  <path
     d="m 958,658.67847 c -0.132,-0.01 -0.265,0.007 -0.39,0.049 -0.126,0.042 -0.242,0.109 -0.342,0.197 -0.099,0.087 -0.18,0.194 -0.238,0.313 -0.058,0.119 -0.092,0.248 -0.1,0.381 0,0.16 -1.2,16.64 -12.26,18.74 -11.28,2.15 -15.7,-0.52 -15.73,-0.54 -0.131,-0.543 -0.431,-1.029 -0.857,-1.389 -0.426,-0.359 -0.956,-0.574 -1.513,-0.611 -0.718,0.141 -1.364,0.528 -1.829,1.093 -0.464,0.566 -0.718,1.275 -0.718,2.007 0,0.731 0.254,1.44 0.718,2.006 0.465,0.565 1.111,0.952 1.829,1.094 0.555,-0.039 1.084,-0.253 1.508,-0.613 0.425,-0.36 0.723,-0.846 0.852,-1.387 2.464,0.871 5.068,1.274 7.68,1.19 2.844,-0.025 5.68,-0.317 8.47,-0.87 5.24,-1 9.3,-4.91 11.76,-11.31 1.126,-2.979 1.84,-6.098 2.12,-9.27 0.011,-0.135 -0.005,-0.27 -0.048,-0.398 -0.043,-0.129 -0.111,-0.247 -0.201,-0.347 -0.09,-0.101 -0.199,-0.183 -0.321,-0.241 -0.122,-0.057 -0.255,-0.089 -0.39,-0.094 z"
     id="path152"
     inkscape:connector-curvature="0"
     style="fill:#6950f6" />
  <path
     d="M 622.45,460.71847 H 439.98 c -3.557,0 -6.44,2.883 -6.44,6.44 v 49.88 c 0,3.557 2.883,6.44 6.44,6.44 h 182.47 c 3.557,0 6.44,-2.883 6.44,-6.44 v -49.88 c 0,-3.557 -2.883,-6.44 -6.44,-6.44 z"
     id="path154"
     inkscape:connector-curvature="0"
     style="fill:#9f94d7" />
  <g
     id="g168"
     transform="translate(-2.0339046e-8,169.00847)"
     style="opacity:0.8">
    <path
       d="M 614.15,302.42 H 479.26 v 6.74 h 134.89 z"
       id="path156"
       inkscape:connector-curvature="0"
       style="fill:#ffffff;fill-opacity:0.5" />
    <path
       d="M 614.15,313.93 H 479.26 v 6.74 h 134.89 z"
       id="path158"
       inkscape:connector-curvature="0"
       style="fill:#ffffff;fill-opacity:0.5" />
    <path
       d="M 581.77,325.41 H 479.26 v 7.14 h 102.51 z"
       id="path160"
       inkscape:connector-curvature="0"
       style="fill:#ffffff;fill-opacity:0.5" />
    <path
       d="m 458.02,332.03 c 8.174,0 14.8,-6.626 14.8,-14.8 0,-8.174 -6.626,-14.8 -14.8,-14.8 -8.174,0 -14.8,6.626 -14.8,14.8 0,8.174 6.626,14.8 14.8,14.8 z"
       id="path162"
       inkscape:connector-curvature="0"
       style="fill:#ffffff;fill-opacity:0.5" />
    <path
       d="m 458,318.32 c 0.989,0 1.956,-0.293 2.778,-0.843 0.822,-0.549 1.463,-1.33 1.841,-2.244 0.379,-0.913 0.478,-1.919 0.285,-2.889 -0.193,-0.97 -0.669,-1.86 -1.368,-2.56 -0.7,-0.699 -1.591,-1.175 -2.561,-1.368 -0.969,-0.193 -1.975,-0.094 -2.888,0.284 -0.914,0.379 -1.695,1.02 -2.244,1.842 -0.55,0.822 -0.843,1.789 -0.843,2.778 0,1.326 0.527,2.598 1.464,3.535 0.938,0.938 2.21,1.465 3.536,1.465 z"
       id="path164"
       inkscape:connector-curvature="0"
       style="fill:#8072ca" />
    <path
       d="m 449.3,326.17 h 17.45 c 0.087,0 0.174,-0.017 0.255,-0.051 0.08,-0.034 0.154,-0.083 0.215,-0.146 0.062,-0.062 0.11,-0.136 0.143,-0.217 0.032,-0.081 0.048,-0.168 0.047,-0.256 -0.003,-1.672 -0.669,-3.274 -1.852,-4.455 -1.183,-1.181 -2.786,-1.845 -4.458,-1.845 h -6.16 c -1.672,0 -3.275,0.664 -4.458,1.845 -1.184,1.181 -1.849,2.783 -1.852,4.455 0,0.178 0.071,0.348 0.196,0.474 0.126,0.126 0.296,0.196 0.474,0.196 z"
       id="path166"
       inkscape:connector-curvature="0"
       style="fill:#8072ca" />
  </g>
  <path
     d="M 902.319,512.00847 H 684.681 c -4.242,0 -7.681,3.721 -7.681,8.312 v 64.376 c 0,4.591 3.439,8.312 7.681,8.312 h 217.638 c 4.242,0 7.681,-3.721 7.681,-8.312 v -64.376 c 0,-4.591 -3.439,-8.312 -7.681,-8.312 z"
     id="path170"
     inkscape:connector-curvature="0"
     style="fill:#9f94d7" />
  <g
     id="g186"
     transform="translate(-2.0339046e-8,169.00847)"
     style="opacity:0.8">
    <path
       d="M 892.834,355.799 H 731.636 v 8.054 h 161.198 z"
       id="path172"
       inkscape:connector-curvature="0"
       style="fill:#ffffff;fill-opacity:0.5" />
    <path
       d="M 892.834,369.554 H 731.636 v 8.054 h 161.198 z"
       id="path174"
       inkscape:connector-curvature="0"
       style="fill:#ffffff;fill-opacity:0.5" />
    <path
       d="M 885,383 H 732 v 9 h 153 z"
       id="path176"
       inkscape:connector-curvature="0"
       style="fill:#ffffff;fill-opacity:0.5" />
    <path
       d="m 820,398 h -88 v 9 h 88 z"
       id="path178"
       inkscape:connector-curvature="0"
       style="fill:#ffffff;fill-opacity:0.5" />
    <path
       d="m 706.254,391.184 c 9.768,0 17.686,-7.919 17.686,-17.687 0,-9.767 -7.918,-17.686 -17.686,-17.686 -9.768,0 -17.687,7.919 -17.687,17.686 0,9.768 7.919,17.687 17.687,17.687 z"
       id="path180"
       inkscape:connector-curvature="0"
       style="fill:#ffffff;fill-opacity:0.5" />
    <path
       d="m 706.23,374.799 c 1.182,0 2.337,-0.35 3.32,-1.007 0.982,-0.656 1.748,-1.589 2.201,-2.681 0.452,-1.092 0.57,-2.293 0.34,-3.452 -0.231,-1.159 -0.8,-2.224 -1.636,-3.06 -0.835,-0.835 -1.9,-1.405 -3.059,-1.635 -1.159,-0.231 -2.361,-0.112 -3.452,0.34 -1.092,0.452 -2.025,1.218 -2.682,2.201 -0.656,0.982 -1.007,2.138 -1.007,3.319 0,1.585 0.63,3.105 1.75,4.225 1.121,1.121 2.641,1.75 4.225,1.75 z"
       id="path182"
       inkscape:connector-curvature="0"
       style="fill:#8072ca" />
    <path
       d="m 695.833,384.18 h 20.854 c 0.104,0 0.208,-0.02 0.304,-0.061 0.097,-0.04 0.184,-0.099 0.258,-0.174 0.073,-0.074 0.131,-0.163 0.17,-0.26 0.039,-0.097 0.058,-0.201 0.056,-0.305 -0.003,-1.998 -0.799,-3.913 -2.212,-5.325 -1.414,-1.411 -3.33,-2.204 -5.328,-2.204 h -7.362 c -1.998,0 -3.914,0.793 -5.327,2.204 -1.414,1.412 -2.21,3.327 -2.213,5.325 0,0.212 0.084,0.416 0.234,0.566 0.15,0.15 0.354,0.234 0.566,0.234 z"
       id="path184"
       inkscape:connector-curvature="0"
       style="fill:#8072ca" />
  </g>
  <defs
     id="defs198">
    <linearGradient
       id="paint0_linear"
       x1="722.11"
       y1="635.86"
       x2="722.11"
       y2="843.27"
       gradientUnits="userSpaceOnUse"
       gradientTransform="translate(-2.0339046e-8,3.6779662e-6)">
      <stop
         stop-color="#D2CAFC"
         stop-opacity="0.5"
         id="stop188" />
      <stop
         offset="1"
         stop-color="white"
         stop-opacity="0"
         id="stop190" />
    </linearGradient>
    <linearGradient
       id="paint1_linear"
       x1="2.08054e+06"
       y1="187812"
       x2="2.08054e+06"
       y2="235659"
       gradientUnits="userSpaceOnUse"
       gradientTransform="translate(9.3220341e-7,1.0169492e-6)">
      <stop
         stop-color="#D2CAFC"
         stop-opacity="0.5"
         id="stop193" />
      <stop
         offset="1"
         stop-color="white"
         stop-opacity="0"
         id="stop195" />
    </linearGradient>
  </defs>
</svg>
