<svg xmlns="http://www.w3.org/2000/svg" width="495.2" height="328.279" viewBox="0 0 495.2 328.279">
  <g id="Group_312" data-name="Group 312" transform="translate(-422.18 -45.955)">
    <g id="Group_209" data-name="Group 209" transform="translate(444.186 45.955)">
      <path id="Path_150" data-name="Path 150" d="M435.722,186.3a3.376,3.376,0,1,1-3.376-3.376A3.378,3.378,0,0,1,435.722,186.3Zm-1.671,0a1.7,1.7,0,1,0-1.7,1.706A1.706,1.706,0,0,0,434.052,186.3Z" transform="translate(-75.772 -22.926)" fill="#91a8f6"/>
      <g id="Group_201" data-name="Group 201" transform="translate(386.899 39.832)">
        <path id="Path_151" data-name="Path 151" d="M498.671,45.55H479.56a.84.84,0,1,0,0,1.679h19.111a.84.84,0,0,0,0-1.679Z" transform="translate(-468.906 -45.541)" fill="#91a8f6"/>
        <path id="Path_152" data-name="Path 152" d="M472.075,45.54H468.34a.84.84,0,0,0,0,1.679h3.735a.84.84,0,0,0,0-1.679Z" transform="translate(-467.5 -45.54)" fill="#91a8f6"/>
        <path id="Path_153" data-name="Path 153" d="M488.291,53.04a.84.84,0,0,1-.84.84h-2.388a.84.84,0,0,1,0-1.679h2.388A.84.84,0,0,1,488.291,53.04Zm-6.569,0a.84.84,0,0,1-.84.84H476.7a.84.84,0,0,1,0-1.679h4.181A.84.84,0,0,1,481.722,53.04Zm-8.362,0a.84.84,0,0,1-.84.84H468.34a.84.84,0,0,1,0-1.679h4.181A.84.84,0,0,1,473.36,53.04Z" transform="translate(-467.5 -46.375)" fill="#91a8f6"/>
      </g>
      <g id="Group_202" data-name="Group 202" transform="translate(101.671 89.758)">
        <path id="Path_154" data-name="Path 154" d="M146.96,109.44a.84.84,0,0,0-.84.84v1.942a.84.84,0,0,0,1.679,0V110.28A.84.84,0,0,0,146.96,109.44Z" transform="translate(-141.992 -103.475)" fill="#91a8f6"/>
        <path id="Path_155" data-name="Path 155" d="M144.181,107.22H142.24a.84.84,0,1,0,0,1.679h1.942a.84.84,0,1,0,0-1.679Z" transform="translate(-141.4 -103.197)" fill="#91a8f6"/>
        <path id="Path_156" data-name="Path 156" d="M146.96,102.62a.84.84,0,0,0-.84.84V105.4a.84.84,0,0,0,1.679,0V103.46A.84.84,0,0,0,146.96,102.62Z" transform="translate(-141.992 -102.62)" fill="#91a8f6"/>
        <path id="Path_157" data-name="Path 157" d="M151.4,107.06H149.46a.84.84,0,0,0,0,1.679H151.4a.84.84,0,0,0,0-1.679Z" transform="translate(-142.305 -103.176)" fill="#91a8f6"/>
      </g>
      <g id="Group_203" data-name="Group 203" transform="translate(311.94 35.564)">
        <path id="Path_158" data-name="Path 158" d="M387.36,47.48a.84.84,0,0,0-.84.84v1.942a.84.84,0,0,0,1.679,0V48.32A.834.834,0,0,0,387.36,47.48Z" transform="translate(-382.392 -41.515)" fill="#91a8f6"/>
        <path id="Path_159" data-name="Path 159" d="M384.581,45.25H382.64a.84.84,0,1,0,0,1.679h1.942a.84.84,0,1,0,0-1.679Z" transform="translate(-381.8 -41.235)" fill="#91a8f6"/>
        <path id="Path_160" data-name="Path 160" d="M387.36,40.66a.84.84,0,0,0-.84.84v1.942a.84.84,0,0,0,1.679,0V41.5A.84.84,0,0,0,387.36,40.66Z" transform="translate(-382.392 -40.66)" fill="#91a8f6"/>
        <path id="Path_161" data-name="Path 161" d="M391.8,45.1H389.86a.84.84,0,1,0,0,1.679H391.8a.84.84,0,0,0,0-1.679Z" transform="translate(-382.705 -41.216)" fill="#91a8f6"/>
      </g>
      <g id="Group_204" data-name="Group 204" transform="translate(209.202)">
        <path id="Path_162" data-name="Path 162" d="M295.521,0H276.41a.84.84,0,0,0,0,1.679h19.111a.84.84,0,0,0,.84-.84A.851.851,0,0,0,295.521,0Z" transform="translate(-265.748)" fill="#91a8f6"/>
        <path id="Path_163" data-name="Path 163" d="M268.924,0H265.19a.84.84,0,0,0,0,1.679h3.735a.84.84,0,0,0,.84-.84A.851.851,0,0,0,268.924,0Z" transform="translate(-264.341)" fill="#91a8f6"/>
        <path id="Path_164" data-name="Path 164" d="M285.131,7.5a.84.84,0,0,1-.84.84H281.9a.84.84,0,1,1,0-1.679h2.388A.84.84,0,0,1,285.131,7.5Zm-6.569,0a.84.84,0,0,1-.84.84h-4.181a.84.84,0,1,1,0-1.679h4.181A.84.84,0,0,1,278.562,7.5Zm-8.362,0a.84.84,0,0,1-.84.84H265.18a.84.84,0,0,1,0-1.679h4.181A.834.834,0,0,1,270.2,7.5Z" transform="translate(-264.34 -0.835)" fill="#91a8f6"/>
      </g>
      <path id="Path_165" data-name="Path 165" d="M533.21,99.706a2.956,2.956,0,1,0,2.956-2.956A2.958,2.958,0,0,0,533.21,99.706Z" transform="translate(-88.837 -12.126)" fill="#91a8f6"/>
      <g id="Group_205" data-name="Group 205" transform="translate(46.742 230.536)">
        <path id="Path_166" data-name="Path 166" d="M90.66,265.249h19.111a.84.84,0,0,0,0-1.679H90.66a.84.84,0,0,0,0,1.679Z" transform="translate(-80.006 -263.57)" fill="#91a8f6"/>
        <path id="Path_167" data-name="Path 167" d="M79.44,265.259h3.735a.84.84,0,0,0,0-1.679H79.44a.84.84,0,0,0,0,1.679Z" transform="translate(-78.6 -263.571)" fill="#91a8f6"/>
      </g>
      <path id="Path_168" data-name="Path 168" d="M502.391,281.04s1.137,8.143-8.371,7.951c0,0,8.169.088,7.959,7.723,0,0,.735-6.009,8.231-7.356C510.21,289.358,503.869,290.819,502.391,281.04Z" transform="translate(-83.925 -35.224)" fill="#91a8f6"/>
      <path id="Path_169" data-name="Path 169" d="M554.311,149.72s1.137,8.143-8.37,7.951c0,0,8.169.087,7.959,7.723,0,0,.735-6.009,8.231-7.356C562.121,158.047,555.789,159.5,554.311,149.72Z" transform="translate(-90.432 -18.765)" fill="#91a8f6"/>
      <path id="Path_170" data-name="Path 170" d="M209.4,23.68s1.137,8.143-8.371,7.951c0,0,8.169.087,7.959,7.723,0,0,.735-6.009,8.231-7.356C217.22,32.007,210.887,33.459,209.4,23.68Z" transform="translate(-47.203 -2.968)" fill="#91a8f6"/>
      <path id="Path_171" data-name="Path 171" d="M115.791,49.39s1.137,8.143-8.371,7.951c0,0,8.169.087,7.959,7.723,0,0,.735-6.009,8.231-7.356C123.61,57.717,117.269,59.169,115.791,49.39Z" transform="translate(-35.47 -6.19)" fill="#91a8f6"/>
      <path id="Path_172" data-name="Path 172" d="M173.311,9.6s.394,2.834-2.921,2.773c0,0,2.851.026,2.773,2.694a3.222,3.222,0,0,1,2.869-2.563S173.827,13.011,173.311,9.6Z" transform="translate(-43.362 -1.203)" fill="#91a8f6"/>
      <path id="Path_173" data-name="Path 173" d="M343.6,121.47s.394,2.834-2.921,2.773c0,0,2.851.026,2.773,2.694a3.222,3.222,0,0,1,2.869-2.563C346.33,124.374,344.118,124.881,343.6,121.47Z" transform="translate(-64.706 -15.224)" fill="#91a8f6"/>
      <path id="Path_174" data-name="Path 174" d="M28.081,176.93s.394,2.834-2.921,2.773c0,0,2.851.026,2.773,2.694a3.222,3.222,0,0,1,2.869-2.563S28.6,180.341,28.081,176.93Z" transform="translate(-25.16 -22.175)" fill="#91a8f6"/>
      <path id="Path_175" data-name="Path 175" d="M311.221,264.41s.394,2.834-2.921,2.773c0,0,2.851.026,2.773,2.694a3.222,3.222,0,0,1,2.869-2.563C313.95,267.314,311.737,267.821,311.221,264.41Z" transform="translate(-60.648 -33.14)" fill="#91a8f6"/>
      <g id="Group_206" data-name="Group 206" transform="translate(115.027 170.367)">
        <path id="Path_176" data-name="Path 176" d="M179.525,209.938H160.973a4.3,4.3,0,0,1-.14-8.607,6.663,6.663,0,0,1,12.245-3.525,4.824,4.824,0,0,1,5.362,3.525h1.085a4.3,4.3,0,1,1,0,8.607Zm-18.552-7.33a3.031,3.031,0,1,0,0,6.061h18.552a3.031,3.031,0,1,0,0-6.061h-2.143l-.087-.534a3.556,3.556,0,0,0-4.391-2.93l-.472.114-.236-.42a5.385,5.385,0,0,0-10.094,2.615,3.994,3.994,0,0,0,.026.464l.061.691Z" transform="translate(-156.67 -194.78)" fill="#91a8f6"/>
      </g>
      <g id="Group_207" data-name="Group 207" transform="translate(446.035 13.347)">
        <path id="Path_177" data-name="Path 177" d="M557.965,30.418H539.413a4.3,4.3,0,0,1-.14-8.607,6.663,6.663,0,0,1,12.245-3.525,4.824,4.824,0,0,1,5.362,3.525h1.085a4.3,4.3,0,0,1,0,8.607ZM539.413,23.08a3.031,3.031,0,1,0,0,6.061h18.552a3.031,3.031,0,1,0,0-6.061h-2.143l-.087-.534a3.556,3.556,0,0,0-4.391-2.93l-.472.114-.236-.42a5.385,5.385,0,0,0-10.094,2.615,3.985,3.985,0,0,0,.026.464l.061.691Z" transform="translate(-535.11 -15.26)" fill="#91a8f6"/>
      </g>
      <g id="Group_208" data-name="Group 208" transform="translate(158.734 60.719)">
        <path id="Path_178" data-name="Path 178" d="M229.495,84.578H210.943a4.3,4.3,0,0,1-.14-8.607,6.663,6.663,0,0,1,12.245-3.525,4.824,4.824,0,0,1,5.362,3.525h1.085a4.3,4.3,0,1,1,0,8.607ZM210.943,77.24a3.031,3.031,0,0,0,0,6.061h18.552a3.031,3.031,0,1,0,0-6.061h-2.143l-.087-.534a3.556,3.556,0,0,0-4.391-2.93l-.472.114-.236-.42a5.385,5.385,0,0,0-10.094,2.615,4.006,4.006,0,0,0,.026.464l.061.691h-1.216Z" transform="translate(-206.64 -69.42)" fill="#91a8f6"/>
      </g>
    </g>
    <g id="Group_240" data-name="Group 240" transform="translate(577.744 191.729)">
      <g id="Group_211" data-name="Group 211" transform="translate(75.17 92.649)">
        <path id="Path_179" data-name="Path 179" d="M294.772,348.447h0A14.988,14.988,0,0,1,276.264,338.1l-11.9-42.054a14.989,14.989,0,0,1,10.347-18.508h0a14.989,14.989,0,0,1,18.508,10.347l11.9,42.054A14.992,14.992,0,0,1,294.772,348.447Z" transform="translate(-263.797 -273.136)" fill="#93c7ea"/>
        <path id="Path_180" data-name="Path 180" d="M279.156,350.137h0a14.991,14.991,0,0,1-.21-21.2l30.6-31.2a14.991,14.991,0,0,1,21.2-.21h0a14.991,14.991,0,0,1,.21,21.2l-30.6,31.2A14.991,14.991,0,0,1,279.156,350.137Z" transform="translate(-265.159 -275.175)" fill="#93c7ea"/>
        <g id="Group_210" data-name="Group 210" transform="translate(49.705)">
          <path id="Path_181" data-name="Path 181" d="M345.969,288.941a13.14,13.14,0,1,1-18.219-3.656A13.135,13.135,0,0,1,345.969,288.941Z" transform="translate(-320.783 -273.903)" fill="#ff8383"/>
          <path id="Path_182" data-name="Path 182" d="M326.07,294.326h0a3.428,3.428,0,0,1-4.172-2.458l-1.163-4.522a3.428,3.428,0,0,1,2.458-4.172h0a3.428,3.428,0,0,1,4.172,2.458l1.163,4.522A3.424,3.424,0,0,1,326.07,294.326Z" transform="translate(-320.625 -273.9)" fill="#ff8383"/>
          <path id="Path_183" data-name="Path 183" d="M340.27,277.444l-4.653,11.782a3.556,3.556,0,0,1-4.609,2h0a3.556,3.556,0,0,1-2-4.609l4.653-11.782a3.556,3.556,0,0,1,4.609-2h0A3.552,3.552,0,0,1,340.27,277.444Z" transform="translate(-321.644 -272.587)" fill="#ff8383"/>
          <path id="Path_184" data-name="Path 184" d="M349.529,280.236,343.9,291.589a3.557,3.557,0,0,1-4.758,1.609h0a3.557,3.557,0,0,1-1.609-4.758l5.624-11.353a3.557,3.557,0,0,1,4.758-1.609h0A3.544,3.544,0,0,1,349.529,280.236Z" transform="translate(-322.699 -272.903)" fill="#ff8383"/>
          <path id="Path_185" data-name="Path 185" d="M356.245,287.375l-7.854,9.945a3.559,3.559,0,0,1-4.994.586h0a3.559,3.559,0,0,1-.586-4.994l7.854-9.945a3.559,3.559,0,0,1,4.994-.586h0A3.558,3.558,0,0,1,356.245,287.375Z" transform="translate(-323.31 -273.719)" fill="#ff8383"/>
        </g>
      </g>
      <g id="Group_231" data-name="Group 231" transform="translate(44.526 0)">
        <g id="Group_212" data-name="Group 212" transform="translate(18.098 47.615)">
          <path id="Path_186" data-name="Path 186" d="M260.515,255.935l-5.1-.2a6.2,6.2,0,0,1-5.956-6.446l1.067-27.1,17.5.691-1.067,27.1A6.218,6.218,0,0,1,260.515,255.935Z" transform="translate(-249.454 -221.237)" fill="#ff8383"/>
          <path id="Path_187" data-name="Path 187" d="M268.142,221.791l-17.5-.691-.271,6.875c-.262,6.735,5.222,12.648,11.948,12.158a10.322,10.322,0,0,0,1.259-.157,12.4,12.4,0,0,0,3.919-1.434Z" transform="translate(-249.568 -221.1)" fill="#d15e79"/>
        </g>
        <g id="Group_230" data-name="Group 230" transform="translate(0)">
          <ellipse id="Ellipse_62" data-name="Ellipse 62" cx="21.832" cy="16.811" rx="21.832" ry="16.811" transform="translate(0 19.929) rotate(-15.801)" fill="#1b2a67"/>
          <ellipse id="Ellipse_63" data-name="Ellipse 63" cx="19.391" cy="12.621" rx="19.391" ry="12.621" transform="translate(17.916 20.147) rotate(-9.642)" fill="#1b2a67"/>
          <ellipse id="Ellipse_64" data-name="Ellipse 64" cx="19.391" cy="12.621" rx="19.391" ry="12.621" transform="translate(5.541 26.326) rotate(-42.751)" fill="#1b2a67"/>
          <path id="Path_188" data-name="Path 188" d="M277.909,213.667c1.723,9.656-3.332,18.639-11.283,20.056h0c-7.951,1.417-15.805-5.257-17.528-14.913l-1.356-7.6c-1.723-9.656,3.332-18.639,11.283-20.056h0c7.959-1.417,15.805,5.257,17.528,14.913Z" transform="translate(-231.099 -169.708)" fill="#ff8383"/>
          <path id="Path_189" data-name="Path 189" d="M259.8,189.573c-4.4-3.98-12.062-2.055-17.108,4.3s-5.572,14.747-1.172,18.727,12.062,2.055,17.108-4.3S264.2,193.562,259.8,189.573Z" transform="translate(-229.988 -169.274)" fill="#1b2a67"/>
          <g id="Group_229" data-name="Group 229" transform="translate(5.814 35)">
            <g id="Group_223" data-name="Group 223" transform="translate(18.983 0.598)">
              <g id="Group_216" data-name="Group 216" transform="translate(7.127 3.88)">
                <g id="Group_213" data-name="Group 213" transform="translate(0 0.004)">
                  <path id="Path_190" data-name="Path 190" d="M266.056,214.135a.8.8,0,0,1-.656-.341.807.807,0,0,1,.2-1.111,5.182,5.182,0,0,1,5.335-.227.8.8,0,1,1-.8,1.382,3.554,3.554,0,0,0-3.621.157A.8.8,0,0,1,266.056,214.135Z" transform="translate(-265.262 -211.801)" fill="#86294e"/>
                </g>
                <g id="Group_214" data-name="Group 214" transform="translate(9.316)">
                  <path id="Path_191" data-name="Path 191" d="M281.193,214.135a.8.8,0,0,1-.455-.14h0a3.554,3.554,0,0,0-3.621-.157.8.8,0,1,1-.8-1.382,5.161,5.161,0,0,1,5.335.227.8.8,0,0,1,.2,1.111A.786.786,0,0,1,281.193,214.135Z" transform="translate(-275.912 -211.797)" fill="#86294e"/>
                </g>
                <g id="Group_215" data-name="Group 215" transform="translate(2.736 3.624)">
                  <path id="Path_192" data-name="Path 192" d="M270.061,216.806a.836.836,0,1,1-.8-.866A.833.833,0,0,1,270.061,216.806Z" transform="translate(-268.389 -215.939)" fill="#86294e"/>
                </g>
                <path id="Path_193" data-name="Path 193" d="M279.211,217.166a.836.836,0,1,1-.8-.866A.833.833,0,0,1,279.211,217.166Z" transform="translate(-266.8 -212.361)" fill="#86294e"/>
              </g>
              <g id="Group_220" data-name="Group 220">
                <g id="Group_217" data-name="Group 217" transform="translate(14.905 1.367)">
                  <path id="Path_194" data-name="Path 194" d="M280.728,222.049c-.087,0-.175,0-.262-.009a6.561,6.561,0,0,1-4.207-11.371,6.461,6.461,0,0,1,4.715-1.741,6.555,6.555,0,0,1,4.2,11.371A6.468,6.468,0,0,1,280.728,222.049Zm-.009-12.018a5.38,5.38,0,0,0-3.691,1.452,5.454,5.454,0,0,0,3.481,9.455,5.532,5.532,0,0,0,3.918-1.443,5.454,5.454,0,0,0-3.481-9.455A2.047,2.047,0,0,0,280.719,210.031Z" transform="translate(-274.154 -208.922)" fill="#ffd2d4"/>
                </g>
                <g id="Group_218" data-name="Group 218">
                  <path id="Path_195" data-name="Path 195" d="M264.493,222.107c-.1,0-.2,0-.3-.009a7.372,7.372,0,0,1-4.714-12.779,7.228,7.228,0,0,1,5.292-1.951,7.372,7.372,0,0,1-.28,14.738Zm-.017-13.5a6.118,6.118,0,0,0-6.114,5.886h0a6.127,6.127,0,0,0,5.878,6.359,6.057,6.057,0,0,0,4.4-1.618,6.119,6.119,0,0,0-3.91-10.618A2.459,2.459,0,0,0,264.475,208.611Z" transform="translate(-257.114 -207.36)" fill="#ffd2d4"/>
                </g>
                <g id="Group_219" data-name="Group 219" transform="translate(12.915 7.382)">
                  <path id="Path_196" data-name="Path 196" d="M272.431,216.946l2.711.1a.581.581,0,0,0,.595-.551h0a.581.581,0,0,0-.551-.595l-2.711-.1a.581.581,0,0,0-.595.551h0A.581.581,0,0,0,272.431,216.946Z" transform="translate(-271.88 -215.8)" fill="#ffd2d4"/>
                </g>
              </g>
              <g id="Group_221" data-name="Group 221" transform="translate(14.241 10.842)">
                <path id="Path_197" data-name="Path 197" d="M278.053,221.281a2.589,2.589,0,0,1-2.467,1.942c-1.286.122-2.265-.56-2.187-1.513a2.589,2.589,0,0,1,2.467-1.942C277.152,219.654,278.131,220.328,278.053,221.281Z" transform="translate(-273.395 -219.756)" fill="#86294e"/>
              </g>
              <g id="Group_222" data-name="Group 222" transform="translate(10.165 16.553)">
                <path id="Path_198" data-name="Path 198" d="M276.926,227.226a4.18,4.18,0,0,1-4.5,3.831c-2.4-.1-3.779-2.467-3.691-4.68A20.81,20.81,0,0,1,276.926,227.226Z" transform="translate(-268.736 -226.285)" fill="#86294e"/>
                <path id="Path_199" data-name="Path 199" d="M272.9,228.607c-1.889-.219-3.061-.866-3.175-2.292a20.64,20.64,0,0,1,6.91.77C276.316,228.371,274.759,228.826,272.9,228.607Z" transform="translate(-268.86 -226.285)" fill="#ffd2d4"/>
              </g>
            </g>
            <g id="Group_228" data-name="Group 228" transform="translate(0 0)">
              <g id="Group_226" data-name="Group 226" transform="translate(14.618 17.166)">
                <g id="Group_224" data-name="Group 224">
                  <path id="Path_200" data-name="Path 200" d="M265.1,231.942h0l-4.706-.009a7.65,7.65,0,0,1-5.134-1.977l-2.948-2.659a.57.57,0,1,1,.761-.848l2.948,2.659a6.486,6.486,0,0,0,4.365,1.679l4.706.009a.567.567,0,0,1,.569.569A.557.557,0,0,1,265.1,231.942Z" transform="translate(-252.123 -226.303)" fill="#201028"/>
                </g>
                <g id="Group_225" data-name="Group 225" transform="translate(9.934 3.925)">
                  <path id="Path_201" data-name="Path 201" d="M266.524,233.073h-1.907a1.141,1.141,0,0,1,.009-2.283h1.907a1.141,1.141,0,0,1-.009,2.283Z" transform="translate(-263.48 -230.79)" fill="#ffd2d4"/>
                </g>
              </g>
              <g id="Group_227" data-name="Group 227" transform="translate(0 0)">
                <ellipse id="Ellipse_65" data-name="Ellipse 65" cx="9.569" cy="9.569" rx="9.569" ry="9.569" transform="translate(0 17.993) rotate(-70.092)" fill="#445eea"/>
                <ellipse id="Ellipse_66" data-name="Ellipse 66" cx="8.169" cy="7.47" rx="8.169" ry="7.47" transform="translate(3.081 20.071) rotate(-87.748)" fill="#91a8f6"/>
                <path id="Path_202" data-name="Path 202" d="M248.435,220.181c-.07,1.828-1.277,3.262-2.694,3.21s-2.51-1.583-2.432-3.411,1.277-3.262,2.694-3.21S248.5,218.353,248.435,220.181Z" transform="translate(-236.4 -207.942)" fill="#e0eef7"/>
              </g>
            </g>
          </g>
        </g>
      </g>
      <g id="Group_232" data-name="Group 232" transform="translate(26.669 66.719)">
        <path id="Path_203" data-name="Path 203" d="M267.4,357.758l-45.771,1.286a13.819,13.819,0,0,1-13.269-14.362l2.9-76.594a9.518,9.518,0,0,1,6.621-8.694L252,248.53l27.272,13.076a9.514,9.514,0,0,1,5.4,8.957l-2.9,73.927A13.825,13.825,0,0,1,267.4,357.758Z" transform="translate(-208.347 -243.642)" fill="#93c7ea"/>
        <path id="Path_204" data-name="Path 204" d="M293.125,273.71c.157,7.986.061,15.963-.07,23.94-.1,7.977-.385,15.945-.673,23.913-.341,7.968-.682,15.936-1.207,23.9a21.355,21.355,0,0,1-.945,6.1,14.187,14.187,0,0,1-3.262,5.283,13.936,13.936,0,0,1-11.117,4.067,13.91,13.91,0,0,0,10.295-4.828,12.917,12.917,0,0,0,2.711-4.968,19.724,19.724,0,0,0,.56-5.72c.1-7.977.394-15.945.673-23.913.341-7.968.682-15.936,1.207-23.9S292.346,281.661,293.125,273.71Z" transform="translate(-216.808 -246.798)" fill="#6eacce"/>
        <path id="Path_205" data-name="Path 205" d="M269.031,262.314l-24.7-1.592.945-14.686a3.3,3.3,0,0,1,3.516-3.088l18.1,1.163a3.3,3.3,0,0,1,3.088,3.516Z" transform="translate(-212.857 -242.941)" fill="#93c7ea"/>
      </g>
      <g id="Group_239" data-name="Group 239" transform="translate(0 89.176)">
        <g id="Group_233" data-name="Group 233">
          <path id="Path_206" data-name="Path 206" d="M187.1,337.823h0a15,15,0,0,1-8.1-19.6l16.759-40.357a15,15,0,0,1,19.6-8.1h0a15,15,0,0,1,8.1,19.6l-16.759,40.357A15,15,0,0,1,187.1,337.823Z" transform="translate(-177.856 -268.616)" fill="#93c7ea"/>
          <path id="Path_207" data-name="Path 207" d="M219.508,269.93a14.779,14.779,0,0,1,6.927,4.863,15.436,15.436,0,0,1,3.149,8.1,17.039,17.039,0,0,1-1.627,8.589l-3.166,7.785c-2.169,5.169-4.347,10.33-6.691,15.429l-3.516,7.645c-1.251,2.519-2.432,5.056-3.744,7.548.84-2.685,1.811-5.318,2.7-7.977l2.93-7.889c1.959-5.257,4.076-10.444,6.2-15.63l3.28-7.741a21.956,21.956,0,0,0,1.417-3.77,14.974,14.974,0,0,0,.455-3.9A15.2,15.2,0,0,0,219.508,269.93Z" transform="translate(-181.99 -268.781)" fill="#6eacce"/>
        </g>
        <g id="Group_238" data-name="Group 238" transform="translate(0.937 28.41)">
          <g id="Group_236" data-name="Group 236" transform="translate(65.608)">
            <g id="Group_234" data-name="Group 234" transform="translate(0 5.309)">
              <path id="Path_208" data-name="Path 208" d="M266.439,321.5l-7.636-.49a5.211,5.211,0,0,1-4.854-5.528l.219-3.446a5.206,5.206,0,0,1,5.528-4.854l7.636.49Zm-6.971-10.89a1.772,1.772,0,0,0-1.88,1.653l-.219,3.446a1.772,1.772,0,0,0,1.653,1.88l4.216.271.455-6.98Z" transform="translate(-253.938 -307.168)" fill="#86294e"/>
            </g>
            <g id="Group_235" data-name="Group 235" transform="translate(6.504)">
              <path id="Path_209" data-name="Path 209" d="M274.788,331.722l-6.6-.429a7.281,7.281,0,0,1-6.8-7.732l1.373-21.228c.149-2.37,21.281-1.006,21.132,1.364l-1.373,21.228A7.27,7.27,0,0,1,274.788,331.722Z" transform="translate(-261.373 -301.097)" fill="#d15e79"/>
              <path id="Path_210" data-name="Path 210" d="M282.227,304.415c-.052.857-3.98,1.294-8.764.988s-8.615-1.251-8.563-2.1,3.98-1.295,8.764-.988S282.28,303.558,282.227,304.415Z" transform="translate(-261.815 -301.238)" fill="#86294e"/>
            </g>
          </g>
          <path id="Path_211" data-name="Path 211" d="M178.93,330.205h0a15,15,0,0,1,15.228-14.756l43.7.691a15,15,0,0,1,14.756,15.228h0a15,15,0,0,1-15.228,14.756l-43.7-.691A14.989,14.989,0,0,1,178.93,330.205Z" transform="translate(-178.928 -302.896)" fill="#93c7ea"/>
          <path id="Path_212" data-name="Path 212" d="M196.34,315.352c5.615-.385,11.222-.516,16.829-.612,5.607-.122,11.213-.061,16.811,0l8.406.192a17.018,17.018,0,0,1,8.528,1.924,15.5,15.5,0,0,1,6.175,6.114,14.73,14.73,0,0,1,1.706,8.292,15.227,15.227,0,0,0-8.668-12.84,14.627,14.627,0,0,0-3.752-1.137,21.481,21.481,0,0,0-4.023-.192l-8.406-.07c-5.607-.114-11.2-.236-16.8-.534C207.536,316.218,201.938,315.912,196.34,315.352Z" transform="translate(-181.11 -302.798)" fill="#6eacce"/>
          <g id="Group_237" data-name="Group 237" transform="translate(57.2 6.697)">
            <ellipse id="Ellipse_67" data-name="Ellipse 67" cx="13.137" cy="13.137" rx="13.137" ry="13.137" transform="translate(0 20.221) rotate(-50.315)" fill="#ff8383"/>
            <path id="Path_213" data-name="Path 213" d="M257.387,321.244h0a3.144,3.144,0,0,1-1.942-4l1.4-4.05a3.144,3.144,0,0,1,4-1.942h0a3.144,3.144,0,0,1,1.942,4l-1.4,4.05A3.14,3.14,0,0,1,257.387,321.244Z" transform="translate(-245.697 -309.046)" fill="#ff8383"/>
            <path id="Path_214" data-name="Path 214" d="M284.265,323.731l-11.659,1.085a3.287,3.287,0,0,1-3.577-2.965h0a3.287,3.287,0,0,1,2.965-3.577l11.659-1.085a3.292,3.292,0,0,1,3.577,2.965h0A3.275,3.275,0,0,1,284.265,323.731Z" transform="translate(-247.419 -309.81)" fill="#ff8383"/>
            <path id="Path_215" data-name="Path 215" d="M281.515,335.881l-11.685-.752a3.288,3.288,0,0,1-3.07-3.49h0a3.288,3.288,0,0,1,3.49-3.07l11.685.752a3.288,3.288,0,0,1,3.07,3.49h0A3.293,3.293,0,0,1,281.515,335.881Z" transform="translate(-247.136 -311.237)" fill="#ff8383"/>
          </g>
        </g>
      </g>
    </g>
    <g id="Group_251" data-name="Group 251" transform="translate(641.851 271.54)">
      <g id="Group_245" data-name="Group 245" transform="translate(136.562)">
        <g id="Group_241" data-name="Group 241" transform="translate(9.317 13.455)">
          <path id="Path_216" data-name="Path 216" d="M419.3,289.113a1.369,1.369,0,0,1-.971-2.335l13.085-13.085a1.367,1.367,0,0,1,1.933,1.933l-13.085,13.085A1.366,1.366,0,0,1,419.3,289.113Z" transform="translate(-417.933 -273.293)" fill="#445eea"/>
        </g>
        <g id="Group_244" data-name="Group 244">
          <g id="Group_242" data-name="Group 242">
            <path id="Path_217" data-name="Path 217" d="M408.653,279.156a1.376,1.376,0,0,1-1.373-1.373v-18.5a1.373,1.373,0,1,1,2.746,0v18.5A1.381,1.381,0,0,1,408.653,279.156Z" transform="translate(-407.28 -257.91)" fill="#445eea"/>
          </g>
          <g id="Group_243" data-name="Group 243" transform="translate(17.336 35.844)">
            <path id="Path_218" data-name="Path 218" d="M446.981,301.636H428.473a1.373,1.373,0,1,1,0-2.746h18.508a1.373,1.373,0,1,1,0,2.746Z" transform="translate(-427.1 -298.89)" fill="#445eea"/>
          </g>
        </g>
      </g>
      <g id="Group_250" data-name="Group 250" transform="translate(0 35.039)">
        <g id="Group_248" data-name="Group 248">
          <path id="Path_219" data-name="Path 219" d="M261.11,367.01H374.327c3.157,0,4.128-2.563,4.128-5.72H255.39A5.717,5.717,0,0,0,261.11,367.01Z" transform="translate(-251.681 -305.906)" fill="#6eacce"/>
          <path id="Path_220" data-name="Path 220" d="M254.01,361.29h40.13c0,3.158-2.9,5.72-6.5,5.72H253.835C250.144,366.958,250.31,361.29,254.01,361.29Z" transform="translate(-251.15 -305.906)" fill="#6eacce"/>
          <g id="Group_247" data-name="Group 247" transform="translate(40.471)">
            <path id="Path_221" data-name="Path 221" d="M302.451,355.024h81.283a5.016,5.016,0,0,0,4.933-4.085l10.96-47a5.027,5.027,0,0,0-4.933-5.965H313.419a5.032,5.032,0,0,0-4.942,4.093l-10.951,47A5,5,0,0,0,302.451,355.024Z" transform="translate(-297.421 -297.97)" fill="#e0eef7"/>
            <path id="Path_222" data-name="Path 222" d="M308.467,302.19a5.022,5.022,0,0,1,2-3.14,4.993,4.993,0,0,1,2,5.012l-10.951,47a5.022,5.022,0,0,1-2,3.14,5.015,5.015,0,0,1-2.012-5.012Z" transform="translate(-297.42 -298.105)" fill="#6eacce"/>
            <g id="Group_246" data-name="Group 246" transform="translate(43.882 24.613)">
              <path id="Path_223" data-name="Path 223" d="M365.87,336.011h-13.33a4.946,4.946,0,0,1-4.951-4.951h0a4.946,4.946,0,0,1,4.951-4.951h13.33a4.946,4.946,0,0,1,4.951,4.951h0A4.946,4.946,0,0,1,365.87,336.011Z" transform="translate(-347.59 -326.11)" fill="#fff"/>
            </g>
          </g>
        </g>
        <g id="Group_249" data-name="Group 249" transform="translate(9.56 54.116)">
          <path id="Path_224" data-name="Path 224" d="M267.5,362.691h-4a1.426,1.426,0,0,1-1.426-1.426h0a1.426,1.426,0,0,1,1.426-1.426h4a1.426,1.426,0,0,1,1.426,1.426h0A1.426,1.426,0,0,1,267.5,362.691Z" transform="translate(-262.08 -359.84)" fill="#6eacce"/>
          <path id="Path_225" data-name="Path 225" d="M276.423,362.691h-4A1.426,1.426,0,0,1,271,361.266h0a1.426,1.426,0,0,1,1.426-1.426h4a1.426,1.426,0,0,1,1.426,1.426h0A1.426,1.426,0,0,1,276.423,362.691Z" transform="translate(-263.198 -359.84)" fill="#6eacce"/>
          <path id="Path_226" data-name="Path 226" d="M285.353,362.691h-4a1.426,1.426,0,0,1-1.426-1.426h0a1.426,1.426,0,0,1,1.426-1.426h4a1.426,1.426,0,0,1,1.426,1.426h0A1.426,1.426,0,0,1,285.353,362.691Z" transform="translate(-264.317 -359.84)" fill="#6eacce"/>
          <path id="Path_227" data-name="Path 227" d="M294.273,362.691h-4a1.426,1.426,0,0,1-1.426-1.426h0a1.426,1.426,0,0,1,1.426-1.426h4a1.426,1.426,0,0,1,1.426,1.426h0A1.42,1.42,0,0,1,294.273,362.691Z" transform="translate(-265.435 -359.84)" fill="#6eacce"/>
        </g>
      </g>
    </g>
    <path id="Path_228" data-name="Path 228" d="M415.873,374.337H73.879a3.429,3.429,0,0,1-3.429-3.429h0a3.429,3.429,0,0,1,3.429-3.429H415.873a3.429,3.429,0,0,1,3.429,3.429h0A3.434,3.434,0,0,1,415.873,374.337Z" transform="translate(438.549 -0.103)" fill="#7a87bc"/>
    <g id="Group_258" data-name="Group 258" transform="translate(518.681 308.435)">
      <g id="Group_256" data-name="Group 256">
        <path id="Path_229" data-name="Path 229" d="M131.886,340s-2.519-18.91-7.076-23.563" transform="translate(-112.145 -303.083)" fill="none" stroke="#1b2a67" stroke-linecap="round" stroke-miterlimit="10" stroke-width="0.827"/>
        <g id="Group_254" data-name="Group 254" transform="translate(3.06)">
          <path id="Path_230" data-name="Path 230" d="M124.834,303.278c1.216,4.032.971,7.671-.56,8.134s-3.744-2.432-4.968-6.464c-.009-.044-.026-.079-.035-.123-1.032-3.595,4.391-5.23,5.519-1.671A1.063,1.063,0,0,1,124.834,303.278Z" transform="translate(-114.495 -301.169)" fill="#ffd2d4"/>
          <g id="Group_252" data-name="Group 252" transform="translate(0 5.425)">
            <path id="Path_231" data-name="Path 231" d="M132.747,313.064c-4.032,1.216-7.671.971-8.134-.56s2.432-3.744,6.464-4.968c.044-.009.079-.026.122-.035,3.586-1.032,5.23,4.391,1.671,5.519A1.063,1.063,0,0,1,132.747,313.064Z" transform="translate(-115.175 -307.371)" fill="#ffd2d4"/>
            <path id="Path_232" data-name="Path 232" d="M117.608,317.738c4.032-1.216,6.927-3.437,6.464-4.968s-4.1-1.776-8.134-.56c-.044.009-.079.026-.122.035-3.56,1.128-1.924,6.551,1.671,5.519A.28.28,0,0,0,117.608,317.738Z" transform="translate(-113.829 -307.882)" fill="#ffd2d4"/>
          </g>
          <g id="Group_253" data-name="Group 253" transform="translate(4.866 11.069)">
            <path id="Path_233" data-name="Path 233" d="M125.093,322.711c1.137-4.058.8-7.688-.726-8.117s-3.7,2.51-4.828,6.569c-.009.044-.026.079-.035.122-.953,3.612,4.5,5.134,5.554,1.548C125.067,322.79,125.084,322.755,125.093,322.711Z" transform="translate(-119.393 -313.915)" fill="#ffd2d4"/>
            <path id="Path_234" data-name="Path 234" d="M129.759,321.448c-3.193-2.746-4.933-5.956-3.892-7.163s4.47.044,7.653,2.79c.035.026.061.052.1.079,2.8,2.475-.9,6.77-3.761,4.365A.669.669,0,0,1,129.759,321.448Z" transform="translate(-120.166 -313.824)" fill="#ffd2d4"/>
          </g>
          <path id="Path_235" data-name="Path 235" d="M126.636,313.279a1.973,1.973,0,1,1-2.458-1.321A1.969,1.969,0,0,1,126.636,313.279Z" transform="translate(-114.95 -302.511)" fill="#d15e79"/>
        </g>
        <g id="Group_255" data-name="Group 255" transform="translate(0 17.835)">
          <path id="Path_236" data-name="Path 236" d="M122.637,328.933c5.239,4.128,8.213,9.079,6.656,11.056s-7.067.245-12.307-3.883-6.656-11.056-6.656-11.056S117.4,324.8,122.637,328.933Z" transform="translate(-110.33 -321.997)" fill="#445eea"/>
          <path id="Path_237" data-name="Path 237" d="M143.388,334.741c-5.528,5.187-11.6,7.706-13.566,5.615s.927-7.994,6.455-13.181,13.566-5.615,13.566-5.615S148.916,329.546,143.388,334.741Z" transform="translate(-112.696 -321.56)" fill="#445eea"/>
        </g>
      </g>
      <g id="Group_257" data-name="Group 257" transform="translate(3.149 33.763)">
        <path id="Path_238" data-name="Path 238" d="M137.734,365.52H119.646l-3.166-22.75H140.9Z" transform="translate(-114.25 -340.146)" fill="#1b2a67"/>
        <path id="Path_239" data-name="Path 239" d="M141.526,348.228h-26.31a1.288,1.288,0,0,1-1.286-1.286v-5.886a1.288,1.288,0,0,1,1.286-1.286h26.31a1.288,1.288,0,0,1,1.286,1.286v5.886A1.282,1.282,0,0,1,141.526,348.228Z" transform="translate(-113.93 -339.77)" fill="#1b2a67"/>
      </g>
    </g>
    <g id="Group_285" data-name="Group 285" transform="translate(422.18 74.638)">
      <g id="Group_262" data-name="Group 262" transform="translate(0 17.193)">
        <g id="Group_259" data-name="Group 259" transform="translate(150.976 52.13)">
          <path id="Path_240" data-name="Path 240" d="M193.52,145.633l8.965,9.621,68.364-28.514Z" transform="translate(-175.231 -113.891)" fill="#445eea"/>
          <path id="Path_241" data-name="Path 241" d="M194.092,112.05l-6.752,10.19,4.566,9.98-10.242,1.741-9.053,19.872,97.805-29.6Z" transform="translate(-172.61 -112.05)" fill="#91a8f6"/>
          <path id="Path_242" data-name="Path 242" d="M194.016,133.68l-4.566-9.98,52.97,2.475Z" transform="translate(-174.721 -113.51)" fill="#445eea"/>
        </g>
        <g id="Group_260" data-name="Group 260" transform="translate(77.425 87.983)" opacity="0.2">
          <path id="Path_243" data-name="Path 243" d="M176.214,236.072c-.752,0-1.5-.009-2.257-.018a1.368,1.368,0,0,1-1.356-1.382,1.345,1.345,0,0,1,1.382-1.356c3.551.044,7.076-.017,10.942-.175h.061a1.369,1.369,0,0,1,.061,2.738C181.943,236.011,179.057,236.072,176.214,236.072Zm-13.242-.542a.576.576,0,0,1-.122-.009c-3.779-.324-7.487-.8-11.038-1.443a1.372,1.372,0,0,1-1.111-1.592,1.4,1.4,0,0,1,1.592-1.111c3.464.621,7.1,1.093,10.793,1.408a1.376,1.376,0,0,1-.114,2.746Zm-21.639-3.953a1.285,1.285,0,0,1-.4-.061,80.178,80.178,0,0,1-10.452-4.015,1.368,1.368,0,0,1,1.163-2.475,77.052,77.052,0,0,0,10.085,3.875,1.368,1.368,0,0,1-.394,2.676Zm-19.855-9.35a1.357,1.357,0,0,1-.761-.227,73.231,73.231,0,0,1-8.825-6.927,1.368,1.368,0,1,1,1.854-2.012,70.058,70.058,0,0,0,8.484,6.665,1.367,1.367,0,0,1,.376,1.9A1.338,1.338,0,0,1,121.477,222.226Zm-16.155-14.852a1.371,1.371,0,0,1-1.076-.516,73.7,73.7,0,0,1-6.289-9.289,1.368,1.368,0,0,1,.516-1.872,1.383,1.383,0,0,1,1.872.516,70.657,70.657,0,0,0,6.053,8.939,1.369,1.369,0,0,1-1.076,2.222ZM94.468,188.306a1.382,1.382,0,0,1-1.286-.892,66.779,66.779,0,0,1-3.079-10.8,1.372,1.372,0,1,1,2.694-.525,64.306,64.306,0,0,0,2.956,10.365,1.368,1.368,0,0,1-.8,1.767A1.415,1.415,0,0,1,94.468,188.306ZM90.094,166.8a1.369,1.369,0,0,1-1.364-1.286c-.14-2.239-.21-4.6-.21-7.006v-.56c.009-1.19.026-2.388.061-3.577a1.373,1.373,0,0,1,1.373-1.329H90a1.382,1.382,0,0,1,1.329,1.417c-.035,1.172-.061,2.335-.061,3.5v.551c0,2.353.07,4.653.21,6.831A1.363,1.363,0,0,1,90.2,166.79.5.5,0,0,1,90.094,166.8Z" transform="translate(-88.52 -153.04)" fill="#445eea"/>
        </g>
        <g id="Group_261" data-name="Group 261" opacity="0.2">
          <path id="Path_244" data-name="Path 244" d="M90.528,132.447c-2.09,0-4.155-.026-6.175-.079a1.373,1.373,0,0,1,.035-2.746h.035q5.314.131,10.951.026a1.3,1.3,0,0,1,1.4,1.347,1.37,1.37,0,0,1-1.347,1.4C93.773,132.429,92.137,132.447,90.528,132.447Zm15.875-.455a1.37,1.37,0,0,1-.07-2.738c3.542-.2,7.225-.464,10.942-.8a1.37,1.37,0,0,1,.245,2.729c-3.744.332-7.461.6-11.038.8A.242.242,0,0,1,106.4,131.992Zm-33.019-.175h-.1c-3.814-.3-7.531-.7-11.038-1.207a1.37,1.37,0,0,1-1.163-1.548,1.394,1.394,0,0,1,1.548-1.163c3.446.49,7.1.892,10.863,1.181a1.371,1.371,0,0,1-.1,2.738Zm54.964-1.758a1.373,1.373,0,0,1-.149-2.738q5.34-.63,10.89-1.417a1.369,1.369,0,0,1,.385,2.711q-5.589.8-10.96,1.426A.567.567,0,0,1,128.348,130.059Zm-76.761-1.4a1.151,1.151,0,0,1-.3-.035c-2.65-.595-5.239-1.268-7.68-1.994-1.041-.306-2.064-.63-3.07-.962a1.369,1.369,0,1,1,.866-2.6c.98.324,1.977.638,2.991.936,2.388.708,4.907,1.364,7.5,1.942a1.369,1.369,0,0,1,1.041,1.636A1.389,1.389,0,0,1,51.588,128.66Zm-20.817-7.041a1.318,1.318,0,0,1-.595-.14,66.757,66.757,0,0,1-9.674-5.7,1.373,1.373,0,0,1,1.6-2.23,64.318,64.318,0,0,0,9.28,5.467,1.376,1.376,0,0,1,.639,1.828A1.418,1.418,0,0,1,30.771,121.619Zm47.2-1.233a1.376,1.376,0,0,1-1.373-1.373v-.481c0-3.455-.14-6.971-.411-10.444a1.378,1.378,0,0,1,1.26-1.478,1.393,1.393,0,0,1,1.478,1.26c.28,3.542.42,7.129.42,10.653v.49A1.381,1.381,0,0,1,77.968,120.385ZM13.041,108.761a1.375,1.375,0,0,1-1.015-.446A47.492,47.492,0,0,1,5.44,99.122,1.372,1.372,0,0,1,7.846,97.8a45.017,45.017,0,0,0,6.21,8.668,1.368,1.368,0,0,1-.087,1.933A1.346,1.346,0,0,1,13.041,108.761ZM76.2,98.4a1.368,1.368,0,0,1-1.347-1.137,93.823,93.823,0,0,0-2.423-10.592,1.367,1.367,0,0,1,.927-1.7,1.353,1.353,0,0,1,1.7.927,95.184,95.184,0,0,1,2.493,10.907,1.374,1.374,0,0,1-1.12,1.583C76.349,98.4,76.28,98.4,76.2,98.4ZM2.528,89.65a1.373,1.373,0,0,1-1.321-1.006c-.166-.612-.332-1.233-.481-1.863A26.873,26.873,0,0,1,0,80.7a23.525,23.525,0,0,1,.262-3.516,1.367,1.367,0,1,1,2.7.411A20.278,20.278,0,0,0,2.729,80.7a23.847,23.847,0,0,0,.665,5.449c.14.595.289,1.181.455,1.767A1.372,1.372,0,0,1,2.9,89.606,1.755,1.755,0,0,1,2.528,89.65Zm67.314-12.3a1.373,1.373,0,0,1-1.233-.778,46.418,46.418,0,0,0-5.624-9.07,1.369,1.369,0,1,1,2.134-1.714,49.262,49.262,0,0,1,5.956,9.6,1.363,1.363,0,0,1-.639,1.828A1.432,1.432,0,0,1,69.842,77.352ZM5.93,68.754a1.342,1.342,0,0,1-.831-.28,1.378,1.378,0,0,1-.262-1.924,31.267,31.267,0,0,1,8.58-7.583,1.374,1.374,0,0,1,1.434,2.344,28.286,28.286,0,0,0-7.837,6.91A1.342,1.342,0,0,1,5.93,68.754ZM55.979,60.6a1.35,1.35,0,0,1-.752-.227,30.983,30.983,0,0,0-9.613-4.163,1.374,1.374,0,1,1,.656-2.668,33.879,33.879,0,0,1,10.461,4.531,1.369,1.369,0,0,1,.394,1.9A1.333,1.333,0,0,1,55.979,60.6Zm-31.768-3.49a1.362,1.362,0,0,1-1.312-.988,1.38,1.38,0,0,1,.927-1.706A51.813,51.813,0,0,1,34.6,52.467l.411-.017a1.469,1.469,0,0,1,1.4,1.347,1.376,1.376,0,0,1-1.347,1.4l-.3.009A48.834,48.834,0,0,0,24.6,57.042.969.969,0,0,1,24.211,57.112Z" transform="translate(0 -52.45)" fill="#445eea"/>
        </g>
      </g>
      <g id="Group_272" data-name="Group 272" transform="translate(276.429 31.188)">
        <g id="Group_269" data-name="Group 269" transform="translate(61.069)">
          <path id="Path_245" data-name="Path 245" d="M402.452,68.45h73.279a16.585,16.585,0,0,1,16.584,16.584v37.794a16.585,16.585,0,0,1-16.584,16.584H427.809l-17.24,15.21v-15.21h-8.126a16.585,16.585,0,0,1-16.584-16.584V85.034A16.6,16.6,0,0,1,402.452,68.45Z" transform="translate(-385.86 -68.45)" fill="#445eea"/>
          <g id="Group_268" data-name="Group 268" transform="translate(25.173 19.234)">
            <g id="Group_263" data-name="Group 263">
              <path id="Path_246" data-name="Path 246" d="M416.722,94.6h51.964a2.082,2.082,0,1,0,0-4.163H416.722a2.082,2.082,0,0,0,0,4.163Z" transform="translate(-414.64 -90.44)" fill="#91a8f6"/>
            </g>
            <g id="Group_264" data-name="Group 264" transform="translate(0 13.855)">
              <path id="Path_247" data-name="Path 247" d="M416.722,110.443h51.964a2.082,2.082,0,1,0,0-4.163H416.722a2.082,2.082,0,0,0,0,4.163Z" transform="translate(-414.64 -106.28)" fill="#91a8f6"/>
            </g>
            <g id="Group_265" data-name="Group 265" transform="translate(44.337 27.709)">
              <path id="Path_248" data-name="Path 248" d="M467.412,126.283h7.618a2.082,2.082,0,0,0,0-4.163h-7.618a2.082,2.082,0,0,0,0,4.163Z" transform="translate(-465.33 -122.12)" fill="#91a8f6"/>
            </g>
            <g id="Group_266" data-name="Group 266" transform="translate(27.018 27.709)">
              <path id="Path_249" data-name="Path 249" d="M447.612,126.283h7.618a2.082,2.082,0,1,0,0-4.163h-7.618a2.082,2.082,0,0,0,0,4.163Z" transform="translate(-445.53 -122.12)" fill="#91a8f6"/>
            </g>
            <g id="Group_267" data-name="Group 267" transform="translate(0 27.709)">
              <path id="Path_250" data-name="Path 250" d="M416.722,126.283H434.04a2.082,2.082,0,1,0,0-4.163H416.722a2.082,2.082,0,0,0,0,4.163Z" transform="translate(-414.64 -122.12)" fill="#91a8f6"/>
            </g>
          </g>
        </g>
        <g id="Group_271" data-name="Group 271" transform="translate(0 75.484)">
          <path id="Path_251" data-name="Path 251" d="M384.43,154.75H328.338a9.985,9.985,0,0,0-9.989,9.989v32.345a9.981,9.981,0,0,0,9.254,9.954L316.04,225.991l30.482-18.919H384.43a9.985,9.985,0,0,0,9.989-9.989V164.739A9.985,9.985,0,0,0,384.43,154.75Z" transform="translate(-316.04 -154.75)" fill="#91a8f6"/>
          <g id="Group_270" data-name="Group 270" transform="translate(24.648 8.926)">
            <circle id="Ellipse_68" data-name="Ellipse 68" cx="6.639" cy="6.639" r="6.639" transform="translate(6.309 9.388) rotate(-45)" stroke-width="2.761" stroke="#445eea" stroke-linecap="round" stroke-linejoin="round" stroke-miterlimit="10" fill="#445eea"/>
            <path id="Path_252" data-name="Path 252" d="M375.612,199.789H344.22a10.06,10.06,0,0,1,10.059-10.059h11.274a10.049,10.049,0,0,1,10.059,10.059Z" transform="translate(-344.22 -168.06)" fill="#445eea" stroke="#445eea" stroke-linecap="round" stroke-linejoin="round" stroke-miterlimit="10" stroke-width="2.761"/>
          </g>
        </g>
      </g>
      <g id="Group_284" data-name="Group 284" transform="translate(250.023)">
        <g id="Group_275" data-name="Group 275" opacity="0.7">
          <g id="Group_273" data-name="Group 273">
            <path id="Path_253" data-name="Path 253" d="M312.938,86.853a27.889,27.889,0,0,1-5.528-.56,1.378,1.378,0,0,1-1.067-1.618,1.4,1.4,0,0,1,1.618-1.067,24.553,24.553,0,0,0,8.607.236,1.371,1.371,0,0,1,.4,2.711A26.853,26.853,0,0,1,312.938,86.853Zm12.446-3.2a1.372,1.372,0,0,1-.673-2.572,24.386,24.386,0,0,0,6.682-5.432,1.37,1.37,0,0,1,2.073,1.793,27.2,27.2,0,0,1-7.426,6.044A1.379,1.379,0,0,1,325.385,83.652Zm-26.135-.735a1.392,1.392,0,0,1-.726-.21,27.014,27.014,0,0,1-7.076-6.446,1.372,1.372,0,0,1,2.178-1.671,24.537,24.537,0,0,0,6.368,5.8,1.372,1.372,0,0,1,.429,1.889A1.407,1.407,0,0,1,299.25,82.917Zm37.8-12.831a1.374,1.374,0,0,1-1.286-1.854,24.2,24.2,0,0,0,1.513-8.467,1.373,1.373,0,0,1,2.746,0,26.992,26.992,0,0,1-1.688,9.429A1.366,1.366,0,0,1,337.053,70.086ZM288.36,68.73a1.372,1.372,0,0,1-1.312-.971,27.056,27.056,0,0,1-1.2-7.986c0-.507.018-1.015.044-1.513a1.4,1.4,0,0,1,1.443-1.286,1.363,1.363,0,0,1,1.286,1.443c-.026.446-.035.9-.035,1.356a24.5,24.5,0,0,0,1.076,7.181,1.369,1.369,0,0,1-.91,1.714A1.479,1.479,0,0,1,288.36,68.73ZM337.9,54.937a1.379,1.379,0,0,1-1.329-1.041,24.094,24.094,0,0,0-3.525-7.854,1.372,1.372,0,0,1,2.265-1.548,26.857,26.857,0,0,1,3.918,8.738,1.37,1.37,0,0,1-1,1.662A1.123,1.123,0,0,1,337.9,54.937Zm-48.544-4.076a1.369,1.369,0,0,1-1.26-1.916,26.807,26.807,0,0,1,5.327-7.959,1.367,1.367,0,1,1,1.968,1.9,24.034,24.034,0,0,0-4.784,7.155A1.358,1.358,0,0,1,289.357,50.861Zm38.45-10.706a1.364,1.364,0,0,1-.8-.254,24.06,24.06,0,0,0-7.785-3.656,1.372,1.372,0,1,1,.709-2.65,26.8,26.8,0,0,1,8.668,4.076,1.373,1.373,0,0,1,.324,1.916A1.392,1.392,0,0,1,327.808,40.155Zm-26.039-2.187a1.372,1.372,0,0,1-.595-2.607A26.889,26.889,0,0,1,310.4,32.8a1.389,1.389,0,0,1,1.5,1.242,1.373,1.373,0,0,1-1.242,1.5,24.166,24.166,0,0,0-8.292,2.3A1.432,1.432,0,0,1,301.769,37.968Z" transform="translate(-285.85 -32.793)" fill="#445eea"/>
          </g>
          <g id="Group_274" data-name="Group 274" transform="translate(9.114 13.957)">
            <path id="Path_254" data-name="Path 254" d="M314.244,48.75c-9.927,0-17.974,5.318-17.974,11.878v.035c.009,1.714,1.356,2.886,2.624,2.344L303.608,61a2.825,2.825,0,0,0,1.172-3.534l-.577-1.583a71.01,71.01,0,0,0,20,0l-.586,2.029a2.866,2.866,0,0,0,1.093,3.254l4.662,2.545c1.137.621,2.458-.21,2.72-1.758a8.351,8.351,0,0,0,.114-1.329C332.219,54.068,324.172,48.75,314.244,48.75Z" transform="translate(-296.27 -48.75)" fill="#445eea"/>
            <path id="Path_255" data-name="Path 255" d="M327.48,76.342H302.57l3.691-11.563a5.224,5.224,0,0,1,4.986-3.639h7.566a5.232,5.232,0,0,1,4.986,3.639Z" transform="translate(-297.06 -50.303)" fill="#91a8f6"/>
          </g>
        </g>
        <g id="Group_283" data-name="Group 283" transform="translate(160.536 140.856)" opacity="0.6">
          <g id="Group_276" data-name="Group 276">
            <path id="Path_256" data-name="Path 256" d="M496.478,247.9a27.282,27.282,0,0,1-5.537-.569,1.371,1.371,0,0,1,.551-2.685,24.554,24.554,0,0,0,8.607.236,1.371,1.371,0,1,1,.4,2.712A26.487,26.487,0,0,1,496.478,247.9Zm12.446-3.2a1.372,1.372,0,0,1-.665-2.572,24.579,24.579,0,0,0,6.682-5.432,1.37,1.37,0,1,1,2.073,1.793,27.2,27.2,0,0,1-7.426,6.044A1.438,1.438,0,0,1,508.925,244.7Zm-26.126-.735a1.392,1.392,0,0,1-.726-.21A27.014,27.014,0,0,1,475,237.31a1.372,1.372,0,0,1,2.178-1.671,24.5,24.5,0,0,0,6.359,5.8,1.369,1.369,0,0,1-.735,2.528Zm37.794-12.831a1.374,1.374,0,0,1-1.286-1.854,24.2,24.2,0,0,0,1.513-8.467,1.373,1.373,0,0,1,2.747,0,26.994,26.994,0,0,1-1.688,9.429A1.365,1.365,0,0,1,520.593,231.135ZM471.9,229.77a1.372,1.372,0,0,1-1.312-.971,27.055,27.055,0,0,1-1.2-7.986c0-.507.017-1.015.044-1.513a1.445,1.445,0,0,1,1.443-1.294,1.376,1.376,0,0,1,1.295,1.443c-.026.455-.035.91-.035,1.364a24.254,24.254,0,0,0,1.076,7.181,1.369,1.369,0,0,1-.91,1.714A1.284,1.284,0,0,1,471.9,229.77Zm49.55-13.785a1.379,1.379,0,0,1-1.329-1.041A24.132,24.132,0,0,0,516.6,207.1a1.372,1.372,0,1,1,2.265-1.548,26.855,26.855,0,0,1,3.919,8.738,1.37,1.37,0,0,1-1,1.662A2.265,2.265,0,0,1,521.45,215.986ZM472.9,211.9a1.369,1.369,0,0,1-1.259-1.916,27.146,27.146,0,0,1,5.327-7.959,1.367,1.367,0,0,1,1.968,1.9,24.2,24.2,0,0,0-4.784,7.155A1.349,1.349,0,0,1,472.9,211.9Zm38.459-10.7a1.364,1.364,0,0,1-.8-.254,24.167,24.167,0,0,0-7.784-3.665,1.369,1.369,0,0,1-.971-1.679,1.383,1.383,0,0,1,1.679-.971,26.885,26.885,0,0,1,8.668,4.076,1.373,1.373,0,0,1-.8,2.493Zm-26.039-2.2a1.372,1.372,0,0,1-.595-2.606,26.89,26.89,0,0,1,9.228-2.563,1.375,1.375,0,1,1,.254,2.738,24.167,24.167,0,0,0-8.292,2.3A1.432,1.432,0,0,1,485.318,199.008Z" transform="translate(-469.39 -193.833)" fill="#445eea"/>
          </g>
          <g id="Group_282" data-name="Group 282" transform="translate(10.925 15.47)">
            <rect id="Rectangle_88" data-name="Rectangle 88" width="31.882" height="18.079" transform="translate(0.009 6.63)" fill="#91a8f6"/>
            <g id="Group_281" data-name="Group 281" transform="translate(5.843)">
              <g id="Group_277" data-name="Group 277">
                <path id="Path_257" data-name="Path 257" d="M513.34,216.731v-2.213a2.949,2.949,0,0,1,2.948-2.948h0a2.949,2.949,0,0,1,2.948,2.948v3.665h-5.9" transform="translate(-491.666 -211.526)" fill="#445eea"/>
                <path id="Path_258" data-name="Path 258" d="M510.3,214.468v18.788H488.56V214.468a2.949,2.949,0,0,1,2.948-2.948H513l-.595.122A2.947,2.947,0,0,0,510.3,214.468Z" transform="translate(-488.56 -211.52)" fill="#e0eef7"/>
              </g>
              <g id="Group_280" data-name="Group 280" transform="translate(1.347 3.026)">
                <rect id="Rectangle_89" data-name="Rectangle 89" width="4.819" height="4.951" transform="translate(0 0.026)" fill="#445eea"/>
                <g id="Group_279" data-name="Group 279">
                  <g id="Group_278" data-name="Group 278" transform="translate(6.298)">
                    <line id="Line_1" data-name="Line 1" x2="12.254" stroke-width="0.658" stroke="#445eea" stroke-linecap="round" stroke-linejoin="round" stroke-miterlimit="10" fill="none"/>
                    <line id="Line_2" data-name="Line 2" x2="12.254" transform="translate(0 1.671)" fill="none" stroke="#445eea" stroke-linecap="round" stroke-linejoin="round" stroke-miterlimit="10" stroke-width="0.658"/>
                    <line id="Line_3" data-name="Line 3" x2="12.254" transform="translate(0 3.332)" fill="none" stroke="#445eea" stroke-linecap="round" stroke-linejoin="round" stroke-miterlimit="10" stroke-width="0.658"/>
                    <line id="Line_4" data-name="Line 4" x2="12.254" transform="translate(0.114 5.003)" fill="none" stroke="#445eea" stroke-linecap="round" stroke-linejoin="round" stroke-miterlimit="10" stroke-width="0.658"/>
                  </g>
                  <line id="Line_5" data-name="Line 5" x2="18.552" transform="translate(0 6.647)" fill="none" stroke="#445eea" stroke-linecap="round" stroke-linejoin="round" stroke-miterlimit="10" stroke-width="0.658"/>
                  <line id="Line_6" data-name="Line 6" x2="18.552" transform="translate(0 8.309)" fill="none" stroke="#445eea" stroke-linecap="round" stroke-linejoin="round" stroke-miterlimit="10" stroke-width="0.658"/>
                  <line id="Line_7" data-name="Line 7" x2="18.552" transform="translate(0 9.936)" fill="none" stroke="#445eea" stroke-linecap="round" stroke-linejoin="round" stroke-miterlimit="10" stroke-width="0.658"/>
                  <line id="Line_8" data-name="Line 8" x2="9.018" transform="translate(0 11.607)" fill="none" stroke="#445eea" stroke-linecap="round" stroke-linejoin="round" stroke-miterlimit="10" stroke-width="0.658"/>
                </g>
              </g>
            </g>
            <path id="Path_259" data-name="Path 259" d="M505.943,237.179H481.89V219.1Z" transform="translate(-481.881 -212.47)" fill="#445eea"/>
            <path id="Path_260" data-name="Path 260" d="M490.85,237.179h24.044V219.1Z" transform="translate(-483.004 -212.47)" fill="#445eea"/>
            <path id="Path_261" data-name="Path 261" d="M513.77,238.6H481.88l14.318-7.645a2.858,2.858,0,0,1,3.245,0Z" transform="translate(-481.88 -213.893)" fill="#445eea"/>
          </g>
        </g>
      </g>
    </g>
  </g>
</svg>
